{"glyphs":{"0":{"ha":772,"x_min":17,"x_max":750,"o":"m 110 847 q 229 958 157 919 q 380 1000 301 997 q 533 969 458 1003 q 661 860 608 935 q 728 707 706 797 q 750 518 750 617 q 726 323 750 419 q 653 151 701 226 q 531 32 604 76 q 357 -6 457 -12 q 216 35 276 -4 q 114 134 156 74 q 49 268 72 194 q 21 415 26 342 q 19 527 17 469 q 32 641 22 585 q 61 750 42 697 q 110 847 81 803 m 258 568 q 251 515 253 549 q 251 441 249 481 q 263 360 254 401 q 286 287 271 319 q 323 235 301 254 q 375 218 344 215 q 437 263 411 222 q 476 362 463 303 q 492 488 490 421 q 483 612 494 554 q 448 707 472 669 q 386 744 424 744 q 330 715 356 744 q 299 622 304 685 q 286 592 297 606 q 258 568 275 578 z "},"1":{"ha":536,"x_min":17,"x_max":517,"o":"m 517 863 q 515 844 517 849 q 514 838 514 840 q 485 651 497 743 q 465 465 472 560 q 457 270 458 369 q 461 61 456 171 q 439 30 458 43 q 392 9 419 17 q 334 0 365 1 q 275 4 303 -1 q 227 24 247 10 q 201 60 207 38 q 188 174 190 107 q 190 318 186 242 q 203 472 194 394 q 221 619 211 550 q 205 608 213 613 q 190 600 197 604 q 144 577 163 586 q 114 566 126 568 q 92 571 101 564 q 74 597 83 578 q 48 659 64 618 q 24 739 32 700 q 26 795 17 772 q 53 834 35 818 q 99 863 72 850 q 153 889 125 875 q 248 940 201 914 q 336 1001 294 965 q 385 1004 356 1015 q 442 971 414 993 q 491 921 469 949 q 517 874 513 893 l 517 863 l 517 863 z "},"2":{"ha":772,"x_min":28,"x_max":742,"o":"m 481 1007 q 589 973 540 1000 q 672 906 638 946 q 724 814 707 865 q 738 707 742 763 q 703 588 733 649 q 630 469 674 526 q 538 360 586 413 q 447 269 489 308 q 504 271 472 271 q 571 271 536 271 q 639 270 606 271 q 697 269 672 269 q 712 262 706 271 q 721 237 718 253 q 724 199 724 221 q 724 154 725 176 q 716 108 721 131 q 704 65 711 85 q 688 33 697 46 q 667 15 678 19 q 638 8 658 11 q 594 5 618 6 q 547 3 571 4 q 506 3 524 3 l 347 3 q 269 3 307 3 q 202 3 232 3 q 151 2 172 3 q 126 1 131 1 q 115 0 124 1 q 95 5 107 -1 q 71 29 83 11 q 49 85 58 47 q 37 163 33 135 q 49 204 40 192 q 81 244 56 218 q 136 300 106 269 q 194 351 153 317 q 281 431 235 386 q 373 525 328 475 q 443 624 418 575 q 465 687 461 657 q 457 734 468 717 q 420 751 446 751 q 354 724 394 751 q 303 667 318 697 q 274 612 289 636 q 235 575 260 588 q 153 572 210 563 q 97 596 122 579 q 56 636 72 613 q 33 689 39 660 q 39 750 28 718 q 103 864 57 813 q 210 949 149 915 q 343 999 272 983 q 481 1007 414 1015 z "},"3":{"ha":714,"x_min":25,"x_max":685,"o":"m 97 11 q 50 49 65 24 q 32 106 35 75 q 36 170 29 138 q 55 228 43 203 q 80 267 67 253 q 104 278 93 282 q 251 242 174 249 q 401 269 328 236 q 456 318 439 288 q 468 380 472 349 q 440 436 464 411 q 374 468 417 461 q 328 473 354 471 q 267 472 301 475 q 226 483 247 469 q 189 520 206 497 q 161 572 172 543 q 151 628 150 600 q 169 677 153 667 q 222 694 186 688 q 307 725 272 706 q 358 765 342 744 q 374 803 375 786 q 353 828 374 821 q 290 827 332 835 q 185 790 249 819 q 105 772 138 769 q 42 829 72 775 q 26 902 25 874 q 42 942 26 931 q 184 1008 101 988 q 349 1026 267 1029 q 511 982 450 1022 q 592 882 572 942 q 586 751 611 822 q 490 615 561 681 q 600 554 557 596 q 664 459 643 513 q 683 346 685 406 q 660 229 682 286 q 599 124 639 172 q 501 44 558 75 q 399 6 453 18 q 292 -10 346 -7 q 189 -7 239 -12 q 97 11 139 -1 z "},"4":{"ha":856,"x_min":32,"x_max":832,"o":"m 707 960 q 749 951 725 957 q 792 933 772 944 q 822 903 811 921 q 825 860 832 885 q 800 653 808 767 q 790 430 792 540 q 791 222 788 319 q 801 61 794 124 q 787 33 803 46 q 744 10 771 19 q 685 -1 718 1 q 624 1 653 -4 q 572 19 594 6 q 540 60 549 33 q 527 136 532 88 q 522 247 522 185 l 522 250 q 449 254 486 253 q 374 257 413 256 q 285 258 328 258 q 208 258 242 258 q 151 258 174 258 q 124 257 129 257 q 110 256 119 257 q 88 263 100 256 q 63 288 75 269 q 42 346 50 307 q 36 378 39 358 q 33 419 33 399 q 35 459 32 440 q 49 489 39 478 q 192 687 132 576 q 301 914 253 797 q 325 979 317 954 q 333 1007 333 1004 q 344 1019 333 1015 q 372 1022 356 1022 q 410 1017 389 1021 q 454 1006 432 1013 q 528 972 501 990 q 565 931 554 954 q 572 880 575 908 q 556 815 568 851 q 483 667 525 736 q 397 526 442 599 q 469 531 433 531 q 539 532 506 532 q 555 657 546 597 q 572 765 564 717 q 588 843 581 813 q 596 881 594 874 q 600 901 597 886 q 614 930 603 915 q 647 954 625 944 q 707 960 668 964 z "},"5":{"ha":735,"x_min":28,"x_max":707,"o":"m 458 667 q 600 605 544 653 q 681 491 656 557 q 703 349 707 425 q 667 204 700 274 q 574 81 635 135 q 424 3 513 26 q 334 -12 381 -8 q 241 -8 288 -15 q 151 20 194 0 q 68 74 107 40 q 38 118 46 92 q 32 173 29 144 q 45 228 35 201 q 70 272 56 254 q 101 294 85 289 q 132 286 118 300 q 221 227 171 249 q 319 208 271 206 q 403 231 369 210 q 456 282 438 251 q 477 347 475 313 q 465 412 479 382 q 419 463 450 442 q 339 485 388 483 q 290 481 315 485 q 240 472 265 476 q 188 465 214 468 q 138 467 163 463 q 115 472 126 469 q 92 486 104 474 q 45 562 63 522 q 35 651 28 601 q 38 706 36 672 q 42 778 40 740 q 46 853 44 815 q 49 918 47 890 q 61 969 49 953 q 94 992 74 986 q 140 996 114 997 q 194 993 167 994 q 282 988 229 990 q 391 986 335 986 q 498 990 447 986 q 579 1006 549 994 q 613 1000 599 1013 q 634 964 626 988 q 643 909 642 940 q 640 849 644 878 q 608 772 633 793 q 531 740 583 751 q 474 733 506 736 q 412 731 443 731 q 349 734 381 731 q 293 744 318 738 q 294 730 293 740 q 294 708 294 719 q 294 685 294 696 q 294 669 294 674 q 378 672 336 671 q 458 667 421 674 z "},"6":{"ha":808,"x_min":17,"x_max":788,"o":"m 389 656 q 483 660 436 661 q 572 651 529 660 q 653 626 615 643 q 718 582 690 610 q 765 513 749 551 q 784 433 781 475 q 779 346 788 390 q 753 260 771 301 q 690 156 729 203 q 601 73 650 108 q 494 18 551 38 q 375 -1 436 -1 q 220 32 289 -1 q 106 122 151 65 q 38 255 60 179 q 25 415 17 331 q 63 576 33 499 q 135 726 92 654 q 235 861 179 797 q 351 981 290 925 q 435 1010 389 1014 q 517 985 481 1007 q 572 933 554 964 q 569 879 589 901 q 534 838 557 865 q 485 778 511 810 q 433 713 458 746 q 389 656 407 679 m 288 426 q 258 338 260 376 q 269 272 256 299 q 310 230 283 244 q 369 214 338 215 q 442 229 407 213 q 502 272 476 246 q 542 331 528 299 q 555 392 557 363 q 533 442 553 421 q 469 471 513 464 q 374 464 425 478 q 288 426 324 450 z "},"7":{"ha":725,"x_min":22,"x_max":706,"o":"m 660 985 q 674 958 667 975 q 689 920 682 940 q 701 882 696 900 q 706 853 706 864 q 700 821 706 835 q 693 810 697 815 q 512 437 593 632 q 393 31 431 242 q 354 -2 389 6 q 275 -3 319 -10 q 231 9 253 1 q 192 28 210 17 q 165 57 175 40 q 153 94 154 74 q 178 261 154 172 q 238 438 201 350 q 317 610 274 526 q 401 760 361 693 q 322 758 364 760 q 238 755 281 756 q 151 756 194 754 q 69 765 108 757 q 44 774 54 768 q 28 794 33 781 q 23 828 24 807 q 28 882 22 850 q 47 957 36 929 q 78 999 58 985 q 130 1015 99 1013 q 210 1014 161 1018 q 414 1003 314 1001 q 604 1008 514 1004 q 626 1009 610 1008 q 660 985 642 1010 z "},"8":{"ha":858,"x_min":36,"x_max":817,"o":"m 681 619 q 779 513 746 578 q 815 376 813 449 q 787 234 817 304 q 697 110 757 164 q 576 34 644 63 q 432 1 507 6 q 283 16 357 -4 q 150 86 210 36 q 66 192 96 132 q 40 319 36 253 q 85 449 44 385 q 210 564 125 513 q 135 662 157 610 q 117 765 113 714 q 148 862 121 815 q 219 944 175 908 q 323 1001 264 979 q 451 1022 382 1022 q 608 988 539 1022 q 712 895 676 953 q 743 765 747 838 q 681 619 739 693 m 397 656 q 436 678 415 665 q 476 708 457 692 q 511 742 496 724 q 533 785 526 761 q 515 833 540 818 q 455 846 490 847 q 386 826 419 844 q 343 778 353 808 q 349 718 336 750 q 397 656 361 686 m 586 325 q 567 390 589 364 q 513 428 546 415 q 441 442 481 442 q 366 430 401 443 q 305 391 331 417 q 275 326 279 365 q 290 263 271 288 q 342 225 310 238 q 415 213 375 213 q 491 226 456 214 q 553 264 526 239 q 586 325 581 289 z "},"9":{"ha":765,"x_min":31,"x_max":732,"o":"m 246 143 q 286 189 263 160 q 335 251 310 218 q 382 315 360 283 q 417 369 404 347 q 251 357 324 340 q 130 419 179 374 q 56 529 81 465 q 32 658 31 593 q 61 806 35 738 q 142 926 88 875 q 259 997 190 972 q 401 1020 328 1021 q 541 992 474 1019 q 653 907 608 965 q 713 783 694 854 q 732 633 732 711 q 712 475 732 554 q 656 322 692 396 q 572 180 621 249 q 467 53 524 111 q 428 19 449 35 q 385 -3 408 4 q 338 -6 363 -10 q 286 17 313 -3 q 232 79 246 44 q 246 143 218 114 m 364 560 q 434 581 406 561 q 477 631 463 601 q 493 694 492 660 q 483 756 494 728 q 445 803 471 785 q 381 821 419 821 q 302 799 333 819 q 256 750 271 779 q 240 686 240 721 q 253 623 239 651 q 294 576 267 594 q 364 560 322 558 z "},"\u0000":{"ha":0,"x_min":0,"x_max":0,"o":""},"\r":{"ha":414,"x_min":0,"x_max":0,"o":""}," ":{"ha":414,"x_min":0,"x_max":0,"o":""},"y":{"ha":828,"x_min":18,"x_max":808,"o":"m 686 829 q 735 821 711 829 q 776 797 758 813 q 801 758 793 781 q 803 708 808 736 q 747 461 782 586 q 660 215 711 336 q 541 -22 610 93 q 385 -237 472 -136 q 310 -284 346 -282 q 222 -242 275 -286 q 169 -168 188 -210 q 169 -87 150 -126 q 239 22 200 -29 q 313 131 278 72 q 200 251 250 181 q 114 403 150 322 q 55 568 78 483 q 22 732 32 653 q 47 802 18 771 q 114 847 75 833 q 190 852 153 861 q 239 801 226 843 q 275 681 256 743 q 319 563 294 619 q 375 457 344 506 q 446 376 406 408 q 518 549 486 461 q 574 731 550 636 q 608 801 582 771 q 686 829 635 831 z "},"S":{"ha":963,"x_min":32,"x_max":925,"o":"m 433 625 q 499 599 465 611 q 563 577 532 588 q 620 558 594 567 q 663 544 646 550 q 783 491 725 521 q 882 407 842 461 q 922 302 918 357 q 901 196 925 247 q 829 101 878 144 q 711 32 781 58 q 591 1 656 11 q 460 -8 526 -10 q 333 9 394 -6 q 221 51 271 24 q 174 86 194 67 q 143 133 154 106 q 143 222 131 185 q 183 279 156 258 q 249 301 211 300 q 325 283 288 303 q 369 268 346 276 q 419 253 393 260 q 470 241 444 246 q 521 238 496 236 q 594 255 575 242 q 607 285 613 268 q 578 321 601 303 q 524 351 554 339 q 400 390 463 375 q 278 428 338 406 q 126 525 185 461 q 49 664 67 589 q 62 816 32 739 q 175 951 92 893 q 274 999 215 981 q 401 1026 333 1018 q 538 1027 468 1033 q 667 1001 607 1021 q 774 944 728 981 q 839 856 819 908 q 844 778 854 815 q 817 721 833 740 q 783 696 800 701 q 749 693 765 690 q 717 706 732 696 q 689 728 701 715 q 613 775 663 754 q 508 802 563 796 q 406 798 454 808 q 336 753 358 788 q 338 692 319 725 q 433 625 356 658 z "},"c":{"ha":840,"x_min":32,"x_max":800,"o":"m 513 613 q 425 574 467 604 q 361 511 383 543 q 321 427 332 471 q 322 349 310 383 q 372 296 333 314 q 482 290 410 278 q 551 317 515 297 q 601 364 588 336 q 615 381 607 371 q 633 398 622 390 q 658 409 643 406 q 692 408 672 413 q 755 373 729 400 q 790 309 781 346 q 792 233 800 272 q 754 160 783 193 q 635 67 701 103 q 497 19 568 32 q 356 16 426 6 q 226 60 286 26 q 120 153 165 94 q 56 293 75 211 q 58 490 32 394 q 148 663 85 586 q 303 790 211 740 q 504 849 396 840 q 588 846 544 851 q 671 826 632 840 q 738 788 710 811 q 778 732 767 764 q 783 683 785 708 q 769 634 781 657 q 736 597 758 611 q 681 582 714 582 q 637 588 658 582 q 594 601 615 594 q 553 613 574 608 q 513 613 533 617 z "},"h":{"ha":872,"x_min":49,"x_max":825,"o":"m 822 99 q 816 70 825 83 q 791 47 807 57 q 753 32 775 38 q 708 25 732 26 q 662 29 685 25 q 619 44 639 33 q 586 70 600 54 q 567 110 572 86 q 561 169 563 128 q 560 261 560 211 q 561 363 560 311 q 564 454 563 415 q 552 551 567 514 q 513 606 538 589 q 459 619 489 622 q 401 594 429 615 q 349 533 372 572 q 317 440 326 494 q 326 307 321 371 q 335 193 331 243 q 342 113 339 143 q 346 79 346 82 q 335 48 350 63 q 295 24 321 33 q 238 9 269 14 q 176 8 206 4 q 122 26 146 13 q 89 67 99 40 q 69 169 78 97 q 56 335 60 242 q 50 531 51 428 q 52 726 49 633 q 63 888 56 818 q 81 988 69 958 q 108 1024 88 1007 q 172 1044 128 1042 q 251 1032 225 1046 q 289 1000 278 1018 q 300 953 301 979 q 301 854 300 904 q 303 747 301 804 q 392 819 342 794 q 497 848 443 844 q 602 834 550 851 q 697 779 654 817 q 769 685 740 742 q 807 554 799 629 q 814 463 811 515 q 818 349 817 410 q 821 225 819 289 q 822 99 822 161 z "},"o":{"ha":850,"x_min":51,"x_max":797,"o":"m 796 444 q 765 281 796 354 q 682 155 733 208 q 565 70 631 101 q 431 31 500 39 q 296 40 363 22 q 176 101 229 57 q 90 217 124 144 q 54 393 57 290 q 66 517 51 456 q 113 632 81 578 q 239 765 161 713 q 421 821 317 818 q 560 797 492 822 q 681 724 628 772 q 766 606 735 676 q 796 444 797 535 m 525 424 q 517 520 532 482 q 475 577 501 558 q 417 595 449 596 q 357 574 385 594 q 310 515 329 554 q 290 418 290 476 q 306 333 290 365 q 347 285 322 300 q 400 272 371 269 q 456 292 429 274 q 501 343 482 310 q 525 424 519 376 z "},"":{"ha":1739,"x_min":51,"x_max":1689,"o":"m 933 714 q 1019 840 964 788 q 1143 921 1075 892 q 1285 955 1211 950 q 1427 938 1358 960 q 1553 867 1496 917 q 1644 739 1611 818 q 1682 580 1675 665 q 1673 410 1689 494 q 1621 247 1657 325 q 1528 111 1585 169 q 1399 21 1472 53 q 1235 -3 1325 -11 q 1094 40 1156 4 q 989 133 1032 76 q 921 262 946 190 q 889 411 896 333 q 893 567 882 489 q 933 714 904 644 m 1140 532 q 1138 392 1124 450 q 1183 303 1153 335 q 1256 269 1214 272 q 1335 291 1297 265 q 1400 373 1372 317 q 1432 518 1428 429 q 1415 613 1433 575 q 1368 669 1397 650 q 1303 690 1339 689 q 1235 673 1268 690 q 1176 620 1201 656 q 1140 532 1150 585 m 796 444 q 765 281 796 354 q 682 155 733 208 q 565 70 631 101 q 431 31 500 39 q 296 40 363 22 q 176 101 229 57 q 90 217 124 144 q 54 393 57 290 q 66 517 51 456 q 113 632 81 578 q 239 765 161 713 q 421 821 317 818 q 560 797 492 822 q 681 724 628 772 q 766 606 735 676 q 796 444 797 535 m 525 424 q 517 520 532 482 q 475 577 501 558 q 417 595 449 596 q 357 574 385 594 q 310 515 329 554 q 290 418 290 476 q 306 333 290 365 q 347 285 322 300 q 400 272 371 269 q 456 292 429 274 q 501 343 482 310 q 525 424 519 376 z "},"l":{"ha":379,"x_min":40,"x_max":340,"o":"m 308 929 q 303 808 304 882 q 303 647 301 733 q 308 469 304 560 q 316 299 311 379 q 326 158 321 219 q 336 69 331 97 q 326 38 340 53 q 285 13 311 24 q 228 -1 260 3 q 166 -2 196 -6 q 112 15 136 1 q 78 56 88 29 q 54 181 63 107 q 43 340 46 256 q 42 512 40 424 q 50 679 44 600 q 63 824 56 758 q 79 929 71 890 q 83 951 81 935 q 94 983 85 967 q 124 1013 103 1000 q 183 1026 144 1026 q 230 1020 206 1025 q 273 1003 254 1015 q 303 974 292 992 q 308 929 314 956 z "},"A":{"ha":829,"x_min":14,"x_max":814,"o":"m 814 100 q 784 29 814 50 q 708 4 754 8 q 662 3 685 1 q 620 13 639 4 q 587 43 601 22 q 565 101 572 64 q 563 113 565 103 q 560 133 561 122 q 556 154 558 144 q 554 167 554 164 q 403 164 479 164 q 249 169 328 164 q 245 149 247 163 q 240 120 243 135 q 235 91 238 106 q 231 68 232 76 q 193 21 222 38 q 131 3 164 4 q 67 15 97 1 q 24 61 36 29 q 16 147 14 83 q 30 297 18 211 q 64 483 42 383 q 117 676 86 582 q 187 851 147 771 q 274 978 226 931 q 347 1031 307 1011 q 435 1050 386 1051 q 562 1011 507 1050 q 655 913 617 972 q 717 783 693 853 q 751 653 740 714 q 767 560 760 613 q 782 451 775 508 q 794 339 789 394 q 805 235 800 283 q 812 151 810 186 q 814 100 814 115 m 283 406 q 401 416 342 413 q 522 424 460 419 q 513 488 518 453 q 501 559 508 522 q 484 632 494 596 q 460 700 474 668 q 422 737 440 740 q 386 703 404 733 q 330 565 351 639 q 283 406 308 492 z "},"g":{"ha":876,"x_min":36,"x_max":826,"o":"m 785 713 q 813 559 801 644 q 825 381 824 474 q 817 193 826 288 q 782 11 807 99 q 716 -151 757 -76 q 615 -279 675 -226 q 507 -342 565 -319 q 387 -367 449 -365 q 264 -348 325 -368 q 147 -283 203 -328 q 72 -197 101 -246 q 42 -89 42 -147 q 66 -33 46 -57 q 114 -1 86 -10 q 172 2 142 8 q 226 -33 203 -4 q 249 -60 238 -46 q 274 -90 260 -75 q 358 -142 317 -136 q 432 -125 399 -147 q 489 -58 465 -103 q 524 42 513 -14 q 339 62 431 33 q 178 149 247 90 q 73 295 110 208 q 51 489 36 382 q 160 708 72 621 q 381 833 247 794 q 446 847 408 842 q 525 853 483 853 q 608 847 567 853 q 686 824 650 840 q 749 781 722 808 q 785 713 775 753 m 540 613 q 416 586 465 613 q 344 522 367 560 q 322 440 321 483 q 351 360 324 396 q 428 305 378 325 q 554 294 479 285 q 556 466 563 388 q 538 619 550 544 q 539 615 535 619 q 540 613 540 614 z "},"e":{"ha":797,"x_min":39,"x_max":764,"o":"m 753 618 q 748 510 764 561 q 697 418 732 458 q 612 349 661 378 q 507 308 563 321 q 438 297 474 300 q 353 296 401 294 q 374 226 353 249 q 425 204 396 204 q 485 224 454 204 q 538 282 517 244 q 591 306 560 304 q 650 294 622 308 q 696 253 678 281 q 711 193 714 226 q 662 104 699 142 q 576 44 625 67 q 470 14 526 21 q 364 17 414 7 q 267 52 314 28 q 181 112 221 76 q 111 193 142 147 q 64 296 81 239 q 53 478 39 385 q 117 649 68 571 q 245 778 165 726 q 429 833 325 829 q 533 822 481 835 q 631 784 586 810 q 708 717 675 758 q 753 618 740 675 m 325 500 q 453 515 410 497 q 510 554 497 532 q 512 596 524 576 q 472 617 500 615 q 404 592 443 618 q 325 500 365 567 z "},"i":{"ha":353,"x_min":39,"x_max":310,"o":"m 296 631 q 301 585 299 628 q 303 478 303 542 q 305 342 304 415 q 306 206 306 269 q 306 100 306 143 q 307 56 307 57 q 294 37 310 44 q 251 25 278 29 q 192 22 224 21 q 130 28 160 22 q 78 44 100 33 q 50 74 56 56 q 41 128 43 90 q 40 215 39 165 q 44 322 42 265 q 51 435 47 379 q 60 538 56 490 q 68 619 65 586 q 69 633 68 622 q 77 654 69 643 q 104 674 85 665 q 163 686 124 683 q 243 681 215 689 q 282 663 271 674 q 296 631 296 649 m 289 846 q 260 776 289 804 q 189 749 232 749 q 121 776 149 749 q 93 846 93 804 q 121 915 93 886 q 189 943 149 943 q 260 915 232 943 q 289 846 289 886 z "},"n":{"ha":888,"x_min":53,"x_max":838,"o":"m 822 513 q 831 445 828 485 q 836 361 835 406 q 836 271 838 317 q 831 183 835 225 q 820 108 826 142 q 804 53 814 74 q 753 12 790 24 q 676 4 715 0 q 606 28 636 8 q 575 82 575 49 q 576 103 575 90 q 581 128 578 117 q 586 157 583 142 q 597 281 594 215 q 586 408 600 346 q 571 460 581 433 q 544 508 561 486 q 504 544 528 531 q 447 557 481 558 q 398 545 422 557 q 355 510 374 533 q 325 453 336 488 q 315 376 314 419 q 314 371 314 375 q 317 258 315 313 q 322 162 319 204 q 325 92 324 119 q 328 61 326 65 q 315 37 331 47 q 272 19 299 26 q 214 11 246 13 q 152 15 182 10 q 99 32 122 19 q 68 65 75 44 q 56 144 60 90 q 53 267 53 199 q 58 412 54 336 q 65 556 61 488 q 74 679 69 625 q 83 758 79 733 q 86 776 85 763 q 97 802 88 789 q 126 826 106 815 q 185 836 146 836 q 264 824 238 836 q 301 796 290 811 q 307 783 306 789 q 311 774 308 778 q 413 806 360 793 q 519 815 467 818 q 633 788 582 813 q 722 722 683 763 q 785 628 760 682 q 822 513 811 574 z "},"u":{"ha":910,"x_min":44,"x_max":876,"o":"m 643 771 q 700 826 660 814 q 781 829 740 839 q 849 793 821 819 q 868 732 876 767 q 844 570 853 651 q 829 401 835 489 q 826 279 826 339 q 829 171 826 219 q 833 103 833 124 q 835 81 833 83 q 825 44 840 61 q 784 16 810 28 q 726 -2 758 4 q 665 -5 694 -8 q 612 11 635 -1 q 581 49 589 24 q 578 58 579 53 q 575 69 576 63 q 452 15 511 29 q 339 7 393 0 q 203 56 258 17 q 113 153 147 94 q 63 285 78 213 q 46 433 47 357 q 56 584 44 510 q 89 721 68 658 q 106 764 96 744 q 126 799 115 783 q 168 835 143 822 q 231 838 193 847 q 306 799 283 824 q 335 751 328 775 q 335 706 339 728 q 324 658 331 683 q 308 602 317 633 q 294 528 300 571 q 302 297 274 371 q 394 226 331 224 q 453 249 428 228 q 499 305 479 271 q 535 383 519 339 q 563 474 550 426 q 596 621 581 546 q 643 771 611 696 z "},"W":{"ha":1311,"x_min":40,"x_max":1271,"o":"m 1118 1031 q 1172 990 1150 1019 q 1210 921 1194 961 q 1249 775 1233 861 q 1268 594 1265 689 q 1257 402 1271 499 q 1208 225 1243 306 q 1114 88 1174 144 q 965 14 1054 31 q 881 11 924 7 q 797 33 838 15 q 722 81 757 50 q 661 157 688 111 q 660 160 660 158 q 521 37 592 75 q 383 -2 450 -1 q 258 30 317 -3 q 153 119 199 63 q 79 251 107 175 q 47 414 51 328 q 60 674 40 542 q 124 924 81 807 q 160 997 139 967 q 206 1033 181 1026 q 249 1038 225 1039 q 296 1028 274 1036 q 336 1005 317 1021 q 367 968 356 989 q 383 867 393 926 q 337 659 360 764 q 308 438 314 554 q 338 305 306 343 q 413 281 371 267 q 493 358 456 294 q 539 533 531 422 q 542 564 540 547 q 547 603 544 581 q 552 658 549 626 q 563 731 556 689 q 588 785 567 763 q 649 810 610 807 q 760 785 722 818 q 793 685 799 751 q 790 575 789 629 q 799 461 792 521 q 846 305 813 351 q 915 263 879 258 q 978 317 950 268 q 1013 447 1007 365 q 1011 578 1017 508 q 995 711 1006 647 q 971 826 985 775 q 944 904 957 878 q 940 941 936 922 q 958 976 944 960 q 1028 1030 983 1013 q 1118 1031 1074 1047 z "},"w":{"ha":1232,"x_min":46,"x_max":1178,"o":"m 997 874 q 1045 859 1021 874 q 1086 824 1069 844 q 1127 751 1110 794 q 1156 662 1144 708 q 1172 571 1167 615 q 1178 496 1178 526 q 1159 329 1178 413 q 1099 177 1140 246 q 992 65 1057 108 q 835 17 926 21 q 699 42 764 14 q 588 131 635 69 q 489 52 547 82 q 364 17 431 22 q 236 33 294 10 q 136 99 178 56 q 72 202 94 142 q 47 332 49 263 q 59 459 46 394 q 96 585 72 524 q 152 703 119 647 q 221 804 185 758 q 266 832 239 824 q 329 826 293 840 q 394 778 378 804 q 411 728 410 753 q 408 706 411 717 q 403 689 406 696 q 396 672 399 681 q 345 558 368 618 q 307 428 322 499 q 300 315 292 358 q 330 260 308 272 q 380 267 351 247 q 432 342 408 286 q 455 401 444 368 q 474 470 465 435 q 490 540 483 506 q 501 606 497 575 q 531 653 507 633 q 593 671 556 672 q 659 656 626 671 q 707 606 692 642 q 721 522 722 565 q 725 432 719 478 q 749 341 731 376 q 790 290 767 306 q 839 278 814 275 q 885 301 864 281 q 920 382 914 332 q 920 487 926 432 q 899 594 914 542 q 869 681 883 646 q 847 725 853 719 q 842 758 838 740 q 857 792 846 775 q 883 822 868 808 q 908 844 897 836 q 951 867 928 858 q 997 874 974 875 z "},"":{"ha":1553,"x_min":47,"x_max":1504,"o":"m 1043 810 q 1231 803 1149 829 q 1370 724 1313 778 q 1460 595 1428 671 q 1499 439 1493 519 q 1482 279 1504 358 q 1409 139 1460 200 q 1277 41 1358 78 q 1083 8 1196 4 q 1085 -92 1086 -40 q 1082 -193 1085 -143 q 1065 -248 1079 -225 q 1001 -279 1050 -271 q 945 -281 975 -283 q 890 -269 915 -279 q 845 -240 864 -258 q 821 -193 826 -221 q 813 -104 814 -161 q 814 28 813 -47 q 819 398 819 214 q 817 774 819 582 q 816 797 817 779 q 822 835 815 815 q 846 874 828 856 q 903 900 864 892 q 982 899 954 911 q 1024 867 1010 886 q 1034 847 1031 857 q 1040 829 1038 838 q 1043 811 1043 819 l 1043 810 m 1081 281 q 1177 305 1139 281 q 1233 364 1215 329 q 1249 438 1251 399 q 1226 511 1247 478 q 1165 564 1206 544 q 1065 579 1125 583 q 1074 440 1069 511 q 1081 281 1078 369 m 243 807 q 369 815 307 818 q 496 783 432 811 q 653 673 594 743 q 731 522 711 603 q 734 358 751 442 q 665 205 717 274 q 526 90 613 136 q 321 38 439 43 q 325 -123 324 -58 q 328 -193 326 -187 q 315 -225 331 -211 q 272 -248 299 -239 q 213 -258 246 -257 q 151 -253 181 -260 q 99 -231 122 -247 q 69 -186 76 -214 q 58 -89 63 -158 q 51 71 54 -19 q 48 262 49 161 q 47 453 47 363 q 48 613 47 543 q 49 710 49 682 q 49 731 49 715 q 56 766 49 747 q 81 801 63 785 q 138 825 100 818 q 202 826 178 832 q 243 807 226 819 m 310 275 q 395 294 358 275 q 451 343 432 314 q 474 406 471 372 q 458 469 476 440 q 399 518 440 499 q 293 539 358 538 q 302 410 297 475 q 310 275 307 346 z "},"v":{"ha":863,"x_min":25,"x_max":836,"o":"m 710 836 q 796 802 757 825 q 836 740 835 779 q 808 605 826 683 q 759 442 789 526 q 689 274 729 357 q 596 128 649 192 q 488 33 544 65 q 378 4 432 1 q 274 49 324 7 q 186 174 225 90 q 85 444 125 303 q 29 729 44 585 q 26 748 28 733 q 31 780 25 763 q 55 814 38 797 q 110 840 72 831 q 189 849 161 854 q 232 832 217 843 q 249 810 243 822 q 253 797 251 804 q 280 694 265 751 q 311 578 294 638 q 348 459 328 518 q 392 350 368 400 q 406 319 400 332 q 419 305 413 307 q 433 313 425 303 q 454 350 442 322 q 487 435 467 381 q 526 553 507 489 q 563 687 546 618 q 589 817 581 756 q 628 840 592 836 q 710 836 664 844 z "},"m":{"ha":1729,"x_min":49,"x_max":1678,"o":"m 1674 125 q 1659 63 1678 89 q 1610 22 1640 36 q 1544 3 1581 7 q 1476 9 1508 0 q 1420 40 1443 18 q 1394 99 1397 63 q 1388 226 1389 160 q 1383 355 1386 293 q 1374 470 1379 417 q 1354 559 1368 524 q 1317 607 1340 594 q 1257 601 1294 619 q 1198 538 1232 589 q 1132 415 1164 486 q 1076 260 1100 343 q 1049 99 1053 176 q 1005 30 1042 54 q 918 0 968 6 q 847 2 883 -3 q 782 35 811 7 q 730 134 747 68 q 703 274 713 200 q 690 419 694 347 q 674 536 685 490 q 590 638 649 647 q 542 603 565 632 q 500 528 519 574 q 465 424 481 482 q 437 306 449 367 q 417 187 425 246 q 406 79 408 128 q 359 14 403 35 q 254 -10 315 -7 q 149 17 183 -11 q 99 94 114 46 q 65 248 76 161 q 51 426 54 335 q 54 607 49 518 q 72 767 60 696 q 107 821 78 803 q 172 842 136 839 q 240 836 207 844 q 288 813 274 828 q 295 798 293 806 q 299 785 297 790 q 299 772 300 778 q 301 676 299 724 q 306 575 303 628 q 362 678 328 626 q 440 769 396 729 q 540 836 485 810 q 661 864 596 863 q 780 835 732 864 q 859 754 828 807 q 907 628 890 701 q 932 464 924 554 q 982 572 954 518 q 1046 674 1010 626 q 1128 763 1082 722 q 1232 832 1174 804 q 1347 865 1288 858 q 1459 851 1406 872 q 1558 776 1513 829 q 1632 629 1603 722 q 1654 515 1646 585 q 1667 369 1663 444 q 1672 228 1671 294 q 1674 125 1674 161 z "},"":{"ha":3194,"x_min":49,"x_max":3133,"o":"m 2525 724 q 2689 823 2600 799 q 2860 826 2778 847 q 3006 740 2942 804 q 3100 572 3071 675 q 3126 431 3118 508 q 3133 278 3133 353 q 3126 140 3133 203 q 3107 43 3119 76 q 3069 1 3096 15 q 3003 -12 3042 -12 q 2947 -7 2972 -12 q 2905 11 2922 -1 q 2879 44 2888 24 q 2874 96 2871 65 q 2879 180 2875 132 q 2887 276 2883 228 q 2892 368 2890 325 q 2890 438 2893 411 q 2847 578 2879 533 q 2774 617 2814 622 q 2697 560 2735 613 q 2640 410 2660 507 q 2617 237 2624 326 q 2610 60 2610 147 q 2601 22 2611 39 q 2574 -7 2592 6 q 2535 -26 2557 -19 q 2489 -33 2513 -33 q 2401 -6 2442 -33 q 2353 83 2360 21 q 2346 197 2347 126 q 2342 354 2344 267 q 2326 502 2339 447 q 2292 578 2313 557 q 2245 588 2271 599 q 2194 540 2219 576 q 2144 444 2168 504 q 2101 306 2119 383 q 2087 226 2093 267 q 2076 147 2081 185 q 2070 78 2072 110 q 2068 28 2068 46 q 2031 -8 2067 7 q 1949 -25 1994 -22 q 1863 -15 1904 -28 q 1810 31 1821 -3 q 1797 113 1800 56 q 1793 242 1793 169 q 1796 397 1793 315 q 1803 551 1799 478 q 1812 681 1807 625 q 1821 763 1817 738 q 1823 780 1822 767 q 1833 808 1824 793 q 1861 834 1842 822 q 1919 847 1881 846 q 1999 837 1972 849 q 2038 810 2026 825 q 2050 769 2051 793 l 2050 701 l 2050 703 q 2156 789 2093 756 q 2284 828 2218 822 q 2414 810 2350 835 q 2525 722 2478 786 l 2525 724 m 1674 125 q 1659 63 1678 89 q 1610 22 1640 36 q 1544 3 1581 7 q 1476 9 1508 0 q 1420 40 1443 18 q 1394 99 1397 63 q 1388 226 1389 160 q 1383 355 1386 293 q 1374 470 1379 417 q 1354 559 1368 524 q 1317 607 1340 594 q 1257 601 1294 619 q 1198 538 1232 589 q 1132 415 1164 486 q 1076 260 1100 343 q 1049 99 1053 176 q 1005 30 1042 54 q 918 0 968 6 q 847 2 883 -3 q 782 35 811 7 q 730 134 747 68 q 703 274 713 200 q 690 419 694 347 q 674 536 685 490 q 590 638 649 647 q 542 603 565 632 q 500 528 519 574 q 465 424 481 482 q 437 306 449 367 q 417 187 425 246 q 406 79 408 128 q 359 14 403 35 q 254 -10 315 -7 q 149 17 183 -11 q 99 94 114 46 q 65 248 76 161 q 51 426 54 335 q 54 607 49 518 q 72 767 60 696 q 107 821 78 803 q 172 842 136 839 q 240 836 207 844 q 288 813 274 828 q 295 798 293 806 q 299 785 297 790 q 299 772 300 778 q 301 676 299 724 q 306 575 303 628 q 362 678 328 626 q 440 769 396 729 q 540 836 485 810 q 661 864 596 863 q 780 835 732 864 q 859 754 828 807 q 907 628 890 701 q 932 464 924 554 q 982 572 954 518 q 1046 674 1010 626 q 1128 763 1082 722 q 1232 832 1174 804 q 1347 865 1288 858 q 1459 851 1406 872 q 1558 776 1513 829 q 1632 629 1603 722 q 1654 515 1646 585 q 1667 369 1663 444 q 1672 228 1671 294 q 1674 125 1674 161 z "},"b":{"ha":839,"x_min":49,"x_max":800,"o":"m 307 818 q 463 835 385 844 q 608 785 542 825 q 722 681 675 746 q 783 533 769 617 q 774 358 800 444 q 691 202 747 272 q 553 84 635 132 q 379 22 472 36 q 331 21 356 19 q 283 32 307 22 q 226 17 258 21 q 162 17 193 13 q 106 37 131 22 q 74 79 82 51 q 60 174 65 107 q 51 329 54 242 q 49 514 49 417 q 53 699 50 611 q 63 853 57 786 q 79 949 69 921 q 85 970 81 954 q 101 1003 90 986 q 131 1033 113 1019 q 181 1047 150 1047 q 260 1034 233 1049 q 297 1001 286 1019 q 308 954 310 981 q 307 917 307 938 l 307 818 m 324 242 q 456 272 401 239 q 538 354 510 306 q 567 456 565 403 q 543 548 569 510 q 460 600 517 586 q 318 582 404 614 q 313 394 311 481 q 321 242 314 307 l 324 242 z "},"":{"ha":1656,"x_min":49,"x_max":1618,"o":"m 1132 828 q 1287 822 1208 833 q 1431 776 1365 811 q 1544 681 1497 742 q 1604 529 1590 621 q 1587 340 1618 433 q 1493 173 1556 246 q 1344 59 1431 100 q 1161 28 1258 18 q 1144 -3 1161 11 q 1101 -27 1128 -18 q 1044 -39 1075 -36 q 984 -35 1013 -42 q 933 -13 956 -29 q 901 32 910 3 q 885 148 892 67 q 877 333 879 229 q 876 550 875 436 q 881 766 876 664 q 894 947 886 868 q 913 1058 901 1026 q 940 1101 919 1082 q 1007 1124 961 1121 q 1085 1109 1060 1125 q 1122 1074 1111 1093 q 1133 1021 1135 1050 q 1133 940 1133 982 q 1132 828 1132 897 m 1147 263 q 1259 297 1211 267 q 1333 367 1307 326 q 1364 453 1360 408 q 1344 534 1368 499 q 1269 589 1321 569 q 1133 599 1218 608 q 1136 425 1131 507 q 1147 263 1142 343 m 307 818 q 463 835 385 844 q 608 785 542 825 q 722 681 675 746 q 783 533 769 617 q 774 358 800 444 q 691 202 747 272 q 553 84 635 132 q 379 22 472 36 q 331 21 356 19 q 283 32 307 22 q 226 17 258 21 q 162 17 193 13 q 106 37 131 22 q 74 79 82 51 q 60 174 65 107 q 51 329 54 242 q 49 514 49 417 q 53 699 50 611 q 63 853 57 786 q 79 949 69 921 q 85 970 81 954 q 101 1003 90 986 q 131 1033 113 1019 q 181 1047 150 1047 q 260 1034 233 1049 q 297 1001 286 1019 q 308 954 310 981 q 307 917 307 938 l 307 818 m 324 242 q 456 272 401 239 q 538 354 510 306 q 567 456 565 403 q 543 548 569 510 q 460 600 517 586 q 318 582 404 614 q 313 394 311 481 q 321 242 314 307 l 324 242 z "},"d":{"ha":849,"x_min":36,"x_max":819,"o":"m 815 89 q 813 65 819 76 q 790 44 806 54 q 754 26 775 33 q 711 14 733 18 q 627 13 668 6 q 565 51 586 21 q 384 19 478 7 q 213 85 290 32 q 85 225 135 139 q 39 415 36 311 q 85 592 42 510 q 200 732 129 675 q 360 812 271 789 q 546 810 450 835 q 551 852 549 826 q 558 905 554 878 q 567 957 561 932 q 581 1000 572 982 q 611 1036 589 1019 q 679 1049 633 1053 q 757 1028 732 1046 q 792 993 782 1011 q 797 975 796 983 q 799 960 799 967 l 799 946 q 787 808 790 883 q 782 655 783 733 q 783 496 781 576 q 789 341 785 415 q 800 202 793 267 q 815 89 807 138 m 299 410 q 319 333 299 363 q 373 295 340 304 q 444 299 406 286 q 518 349 482 311 q 517 454 517 401 q 522 568 518 507 q 441 580 481 585 q 371 553 401 575 q 320 495 340 532 q 299 410 300 458 z "},"":{"ha":1640,"x_min":36,"x_max":1611,"o":"m 1596 32 q 1583 -1 1599 14 q 1542 -27 1568 -17 q 1483 -42 1515 -37 q 1421 -42 1450 -47 q 1368 -20 1392 -36 q 1338 25 1344 -4 q 1337 28 1338 26 q 1336 32 1336 31 q 1140 37 1224 11 q 999 118 1056 63 q 915 251 943 174 q 887 410 886 328 q 917 570 888 492 q 1004 708 946 649 q 1150 798 1063 767 q 1356 817 1238 829 q 1366 922 1363 868 q 1385 1028 1369 976 q 1394 1053 1388 1040 q 1411 1078 1400 1067 q 1440 1099 1422 1090 q 1485 1108 1458 1107 q 1563 1096 1538 1111 q 1599 1061 1588 1081 q 1608 1008 1611 1038 q 1607 967 1608 990 q 1604 919 1606 947 q 1601 858 1603 892 q 1597 747 1599 819 q 1594 585 1594 674 q 1592 402 1593 496 q 1592 229 1592 308 q 1592 96 1592 150 q 1596 32 1593 42 m 1335 585 q 1240 582 1281 601 q 1176 524 1199 563 q 1148 440 1153 486 q 1160 356 1143 393 q 1216 299 1176 318 q 1321 296 1256 279 q 1322 360 1321 331 q 1325 420 1324 389 q 1329 490 1326 451 q 1335 585 1332 529 m 815 89 q 813 65 819 76 q 790 44 806 54 q 754 26 775 33 q 711 14 733 18 q 627 13 668 6 q 565 51 586 21 q 384 19 478 7 q 213 85 290 32 q 85 225 135 139 q 39 415 36 311 q 85 592 42 510 q 200 732 129 675 q 360 812 271 789 q 546 810 450 835 q 551 852 549 826 q 558 905 554 878 q 567 957 561 932 q 581 1000 572 982 q 611 1036 589 1019 q 679 1049 633 1053 q 757 1028 732 1046 q 792 993 782 1011 q 797 975 796 983 q 799 960 799 967 l 799 946 q 787 808 790 883 q 782 655 783 733 q 783 496 781 576 q 789 341 785 415 q 800 202 793 267 q 815 89 807 138 m 299 410 q 319 333 299 363 q 373 295 340 304 q 444 299 406 286 q 518 349 482 311 q 517 454 517 401 q 522 568 518 507 q 441 580 481 585 q 371 553 401 575 q 320 495 340 532 q 299 410 300 458 z "},"k":{"ha":819,"x_min":38,"x_max":792,"o":"m 776 188 q 778 168 785 183 q 754 131 771 153 q 715 87 738 110 q 668 46 692 64 q 622 18 644 28 q 585 14 600 8 q 517 61 557 24 q 437 146 478 99 q 359 241 396 193 q 301 318 322 289 q 308 261 306 292 q 315 201 311 231 q 321 147 318 172 q 328 103 324 121 q 300 59 333 79 q 219 31 267 39 q 173 26 196 26 q 129 33 150 26 q 92 51 108 39 q 68 82 76 63 q 49 192 56 122 q 40 347 42 263 q 39 524 38 432 q 44 701 40 617 q 54 853 49 785 q 65 957 60 921 q 67 978 65 963 q 79 1010 69 993 q 110 1039 89 1026 q 169 1050 131 1051 q 215 1045 192 1050 q 256 1029 238 1040 q 285 999 274 1018 q 294 954 296 981 q 286 763 286 858 q 288 568 286 668 q 362 638 321 601 q 443 716 403 675 q 517 799 483 757 q 571 886 551 842 q 598 889 578 893 q 644 874 618 885 q 699 846 671 863 q 748 811 726 829 q 781 776 769 793 q 786 744 792 758 q 726 641 761 688 q 654 557 692 594 q 580 489 617 519 q 517 436 543 458 q 596 359 551 401 q 679 279 640 317 q 746 215 718 242 q 776 188 774 189 z "},"f":{"ha":590,"x_min":26,"x_max":572,"o":"m 460 813 q 408 794 426 806 q 380 765 389 783 q 367 722 371 747 q 358 661 363 696 q 472 666 424 664 q 524 669 519 668 q 538 656 532 672 q 547 614 544 640 q 550 555 550 588 q 546 493 550 522 q 533 441 542 464 q 511 411 524 418 q 442 395 488 399 q 342 394 396 392 q 345 302 343 353 q 352 199 347 251 q 363 98 357 147 q 379 11 369 49 q 355 -38 386 -14 q 278 -74 324 -62 q 231 -82 254 -81 q 185 -78 207 -83 q 147 -59 164 -72 q 121 -22 131 -46 q 97 71 106 19 q 83 178 89 122 q 76 295 78 235 q 74 414 74 356 q 51 435 63 417 q 32 506 39 453 q 32 585 26 558 q 46 625 38 613 q 69 640 56 640 l 76 640 q 83 640 79 640 q 94 642 88 640 l 94 643 q 113 738 103 689 q 141 833 124 788 q 187 920 158 879 q 261 990 215 961 q 356 1031 304 1019 q 465 1043 408 1043 q 550 1006 528 1043 q 565 893 572 968 q 559 843 563 858 q 545 823 556 828 q 515 817 535 818 q 460 813 494 817 z "},"":{"ha":1181,"x_min":26,"x_max":1142,"o":"m 1079 838 q 985 865 1021 868 q 928 834 949 863 q 901 756 907 806 q 897 647 894 707 q 934 647 907 647 q 992 645 961 646 q 1049 645 1022 644 q 1085 650 1076 646 q 1115 644 1103 657 q 1133 606 1126 631 q 1140 551 1139 582 q 1139 490 1142 519 q 1130 439 1136 461 q 1115 410 1124 417 q 1070 394 1099 396 q 1011 395 1042 392 q 950 405 981 399 q 899 414 919 411 q 905 206 899 303 q 917 35 911 108 q 930 -81 924 -37 q 936 -129 936 -125 q 925 -169 940 -151 q 883 -197 910 -186 q 825 -211 857 -208 q 763 -206 793 -214 q 710 -178 733 -199 q 678 -124 686 -158 q 660 -13 668 -85 q 644 149 651 58 q 634 340 638 239 q 633 539 631 442 q 645 722 636 636 q 672 868 654 808 q 704 949 685 911 q 753 1018 724 988 q 821 1067 782 1049 q 910 1090 860 1086 q 994 1086 956 1094 q 1063 1063 1033 1078 q 1109 1032 1092 1049 q 1129 1003 1126 1015 q 1129 949 1132 979 q 1119 892 1126 918 q 1102 849 1113 865 q 1079 838 1092 832 m 460 813 q 408 794 426 806 q 380 765 389 783 q 367 722 371 747 q 358 661 363 696 q 472 666 424 664 q 524 669 519 668 q 538 656 532 672 q 547 614 544 640 q 550 555 550 588 q 546 493 550 522 q 533 441 542 464 q 511 411 524 418 q 442 395 488 399 q 342 394 396 392 q 345 302 343 353 q 352 199 347 251 q 363 98 357 147 q 379 11 369 49 q 355 -38 386 -14 q 278 -74 324 -62 q 231 -82 254 -81 q 185 -78 207 -83 q 147 -59 164 -72 q 121 -22 131 -46 q 97 71 106 19 q 83 178 89 122 q 76 295 78 235 q 74 414 74 356 q 51 435 63 417 q 32 506 39 453 q 32 585 26 558 q 46 625 38 613 q 69 640 56 640 l 76 640 q 83 640 79 640 q 94 642 88 640 l 94 643 q 113 738 103 689 q 141 833 124 788 q 187 920 158 879 q 261 990 215 961 q 356 1031 304 1019 q 465 1043 408 1043 q 550 1006 528 1043 q 565 893 572 968 q 559 843 563 858 q 545 823 556 828 q 515 817 535 818 q 460 813 494 817 z "},"j":{"ha":728,"x_min":28,"x_max":683,"o":"m 628 929 q 599 860 628 889 q 531 831 571 831 q 461 860 490 831 q 432 929 432 889 q 461 998 432 969 q 531 1026 490 1026 q 599 998 571 1026 q 628 929 628 969 m 393 79 q 418 366 419 226 q 406 644 417 506 q 403 663 404 656 q 403 672 403 671 q 415 712 399 693 q 459 743 432 731 q 519 760 486 756 q 583 757 553 764 q 635 731 613 750 q 661 675 657 711 q 675 533 669 606 q 682 386 681 460 q 678 241 683 313 q 660 101 674 169 q 626 -17 647 40 q 572 -121 604 -74 q 455 -229 522 -194 q 319 -260 388 -264 q 188 -217 250 -257 q 88 -100 126 -178 q 42 31 56 -37 q 31 158 28 100 q 67 235 35 207 q 140 267 100 263 q 213 253 179 272 q 253 189 247 233 q 256 142 256 174 q 260 78 257 110 q 283 -4 265 19 q 322 -25 301 -28 q 363 6 343 -22 q 393 79 382 33 z "},"q":{"ha":779,"x_min":28,"x_max":761,"o":"m 726 -162 q 713 -193 729 -179 q 671 -217 697 -207 q 613 -230 644 -226 q 551 -228 581 -233 q 497 -209 521 -224 q 467 -167 474 -194 q 455 -87 458 -136 q 451 25 451 -37 q 278 35 357 10 q 142 115 199 60 q 57 250 86 169 q 35 425 28 331 q 88 606 43 522 q 204 744 133 690 q 365 816 275 799 q 554 799 456 833 q 585 819 567 811 q 635 825 604 826 q 678 818 654 824 q 721 801 701 813 q 751 770 740 789 q 754 725 761 751 q 750 688 751 708 q 747 644 747 669 q 743 589 746 619 q 738 487 740 553 q 732 340 735 421 q 727 176 729 260 q 724 19 725 92 q 724 -103 724 -53 q 726 -162 724 -153 m 500 572 q 401 581 443 597 q 333 527 358 565 q 299 440 307 489 q 307 351 292 392 q 361 290 322 311 q 465 285 400 268 q 481 423 474 353 q 500 572 488 493 z "},"r":{"ha":700,"x_min":42,"x_max":671,"o":"m 485 817 q 564 784 528 813 q 624 716 600 756 q 660 632 649 676 q 665 553 671 588 q 645 483 661 517 q 605 425 629 449 q 551 394 581 401 q 490 404 522 386 q 456 437 471 414 q 429 485 442 460 q 404 535 417 511 q 377 572 392 558 q 344 583 363 585 q 301 554 325 581 q 300 311 294 433 q 319 68 306 189 q 308 44 324 56 q 267 24 293 32 q 210 13 242 17 q 148 13 178 10 q 94 28 118 17 q 63 60 71 39 q 51 133 56 78 q 44 262 46 189 q 43 419 42 335 q 49 578 44 503 q 64 714 54 654 q 88 800 74 774 q 116 828 96 815 q 181 839 136 842 q 221 835 199 839 q 263 823 243 832 q 294 799 282 814 q 306 760 307 783 l 306 749 q 305 735 306 743 q 304 717 304 728 q 344 755 322 736 q 389 788 365 774 q 437 810 413 803 q 485 817 461 818 z "},"s":{"ha":633,"x_min":31,"x_max":611,"o":"m 469 511 q 503 483 485 500 q 541 442 522 465 q 575 387 560 418 q 597 317 590 356 q 599 207 608 261 q 564 108 590 153 q 493 29 538 63 q 389 -17 449 -4 q 297 -23 343 -26 q 207 -1 250 -19 q 127 48 164 17 q 64 125 90 79 q 39 200 42 164 q 47 265 36 236 q 78 315 58 294 q 122 340 99 335 q 169 333 146 344 q 211 288 193 321 q 233 250 218 274 q 265 208 247 226 q 304 181 283 189 q 346 190 325 174 q 360 224 360 201 q 335 274 360 246 q 294 308 318 290 q 242 345 269 326 q 190 382 215 364 q 146 415 164 400 q 58 533 85 467 q 38 661 31 599 q 89 776 46 724 q 213 853 132 828 q 299 867 254 865 q 388 861 343 869 q 474 835 432 853 q 553 790 517 817 q 599 733 588 763 q 608 679 611 704 q 594 635 606 654 q 572 610 582 617 q 517 588 544 589 q 482 596 489 588 q 460 622 475 606 q 399 665 444 639 q 335 686 364 685 q 293 676 306 688 q 291 640 281 664 q 347 588 301 617 q 412 548 378 568 q 469 511 446 528 z "},"t":{"ha":685,"x_min":36,"x_max":651,"o":"m 479 313 q 511 333 490 331 q 556 324 532 335 q 601 294 579 314 q 636 247 624 274 q 646 187 651 215 q 625 132 640 158 q 572 70 604 97 q 501 25 540 43 q 419 1 463 7 q 333 1 376 -6 q 238 40 281 11 q 165 109 196 68 q 114 199 133 150 q 86 300 94 247 q 80 410 79 354 q 82 526 81 465 q 53 564 64 536 q 39 624 42 592 q 40 688 36 657 q 57 735 44 719 q 75 749 64 746 q 83 750 81 750 l 88 750 q 94 750 90 750 q 101 751 97 750 q 115 901 110 843 q 119 965 119 958 q 133 1000 119 986 q 167 1021 147 1014 q 208 1029 186 1028 q 246 1028 229 1031 q 328 998 289 1022 q 376 926 368 974 q 378 860 379 901 q 372 765 376 818 q 581 786 476 771 q 611 778 600 793 q 626 738 622 764 q 629 678 631 711 q 621 613 628 644 q 603 558 614 582 q 581 526 593 533 q 526 505 554 511 q 469 497 499 499 q 408 498 439 496 q 347 503 378 500 q 342 451 344 478 q 338 395 339 424 q 342 338 338 367 q 357 283 346 310 q 410 251 375 242 q 479 313 446 260 z "},"x":{"ha":818,"x_min":25,"x_max":793,"o":"m 775 172 q 784 144 788 164 q 766 102 781 125 q 728 57 751 79 q 679 19 706 35 q 625 0 653 4 q 575 10 597 -4 q 478 93 524 44 q 393 193 432 142 q 283 90 329 131 q 228 42 236 49 q 212 28 224 38 q 182 12 200 18 q 140 9 164 6 q 86 38 115 13 q 56 68 71 50 q 33 106 42 86 q 28 147 25 126 q 50 185 31 168 q 86 224 61 197 q 140 282 111 250 q 197 344 169 314 q 243 396 225 375 q 178 494 208 447 q 126 579 149 542 q 91 641 104 617 q 75 671 78 665 q 65 690 72 676 q 56 721 57 703 q 65 760 56 739 q 108 803 75 782 q 146 823 125 814 q 188 834 167 832 q 230 829 210 836 q 264 801 250 822 q 287 766 268 793 q 328 707 306 739 q 374 644 351 675 q 411 597 397 613 q 474 678 444 640 q 526 747 504 717 q 560 797 547 778 q 575 818 574 815 q 602 833 582 832 q 649 824 622 833 q 703 799 675 815 q 751 760 731 782 q 783 714 772 739 q 783 664 793 689 q 693 520 749 588 q 579 386 638 453 q 674 276 625 329 q 775 172 722 222 z "},"z":{"ha":729,"x_min":36,"x_max":704,"o":"m 678 254 q 697 229 690 249 q 703 184 703 210 q 700 128 704 158 q 688 74 696 99 q 670 34 681 50 q 649 18 660 18 q 533 19 599 19 q 399 17 468 18 q 265 12 331 15 q 146 4 199 8 q 105 29 131 1 q 60 100 79 57 q 38 196 40 143 q 69 296 36 249 q 130 372 96 333 q 200 451 164 411 q 272 530 236 490 q 335 607 307 569 q 269 595 301 601 q 213 583 238 589 q 160 570 181 576 q 138 563 140 564 q 119 570 131 557 q 98 606 108 583 q 78 658 88 629 q 64 715 68 688 q 62 765 60 743 q 76 796 64 788 q 152 830 104 817 q 256 849 200 843 q 374 856 313 856 q 489 854 435 857 q 586 844 543 851 q 651 831 629 838 q 670 810 663 826 q 682 769 678 793 q 687 717 686 746 q 685 658 688 688 q 675 632 683 643 q 668 622 671 626 q 520 452 589 543 q 385 257 451 361 q 390 258 386 258 q 464 262 425 260 q 541 264 503 264 q 615 262 579 264 q 678 254 650 260 z "},"":{"ha":1267,"x_min":31,"x_max":1232,"o":"m 1107 599 q 1097 613 1104 603 q 1079 638 1090 624 q 1054 665 1068 651 q 1022 689 1040 679 q 987 701 1006 697 q 951 703 968 706 q 920 694 933 701 q 903 672 907 686 q 913 624 896 653 q 971 572 931 596 q 1025 538 996 557 q 1083 496 1054 519 q 1138 444 1111 472 q 1183 383 1164 417 q 1228 235 1226 313 q 1198 95 1231 158 q 1100 -9 1165 32 q 943 -49 1035 -50 q 852 -35 897 -49 q 768 7 807 -21 q 701 76 729 35 q 663 174 672 117 q 673 249 656 214 q 717 303 690 285 q 774 319 744 322 q 822 279 803 315 q 867 208 844 235 q 911 169 890 182 q 958 157 938 153 q 987 177 978 161 q 993 217 996 193 q 971 263 990 240 q 922 308 951 286 q 861 348 892 329 q 803 382 831 367 q 764 408 776 397 q 674 513 708 451 q 649 653 639 575 q 681 752 654 706 q 750 832 708 799 q 845 883 792 865 q 957 900 899 901 q 1037 890 997 899 q 1111 863 1076 881 q 1174 817 1146 846 q 1221 747 1203 789 q 1230 713 1228 729 q 1229 682 1232 697 q 1210 622 1225 647 q 1178 585 1196 597 q 1140 576 1160 574 q 1107 599 1121 579 m 469 511 q 503 483 485 500 q 541 442 522 465 q 575 387 560 418 q 597 317 590 356 q 599 207 608 261 q 564 108 590 153 q 493 29 538 63 q 389 -17 449 -4 q 297 -23 343 -26 q 207 -1 250 -19 q 127 48 164 17 q 64 125 90 79 q 39 200 42 164 q 47 265 36 236 q 78 315 58 294 q 122 340 99 335 q 169 333 146 344 q 211 288 193 321 q 233 250 218 274 q 265 208 247 226 q 304 181 283 189 q 346 190 325 174 q 360 224 360 201 q 335 274 360 246 q 294 308 318 290 q 242 345 269 326 q 190 382 215 364 q 146 415 164 400 q 58 533 85 467 q 38 661 31 599 q 89 776 46 724 q 213 853 132 828 q 299 867 254 865 q 388 861 343 869 q 474 835 432 853 q 553 790 517 817 q 599 733 588 763 q 608 679 611 704 q 594 635 606 654 q 572 610 582 617 q 517 588 544 589 q 482 596 489 588 q 460 622 475 606 q 399 665 444 639 q 335 686 364 685 q 293 676 306 688 q 291 640 281 664 q 347 588 301 617 q 412 548 378 568 q 469 511 446 528 z "},"":{"ha":1289,"x_min":36,"x_max":1261,"o":"m 1236 786 q 1251 772 1246 789 q 1259 729 1257 756 q 1258 671 1261 703 q 1249 609 1256 639 q 1232 557 1243 579 q 1206 529 1221 535 q 1160 519 1189 522 q 1094 517 1131 517 q 1097 274 1092 397 q 1126 24 1103 150 q 1116 -10 1131 7 q 1076 -38 1101 -26 q 1018 -56 1050 -50 q 956 -57 986 -61 q 901 -38 925 -53 q 868 6 878 -24 q 842 124 850 58 q 831 260 833 190 q 830 401 828 331 q 835 535 832 472 q 776 540 799 538 q 749 543 754 543 q 737 544 746 543 q 719 552 728 544 q 701 579 710 560 q 690 638 693 599 q 694 717 688 690 q 711 757 701 744 q 738 772 722 772 q 769 774 751 772 q 806 776 785 775 q 850 779 826 776 q 863 909 857 858 q 872 969 869 960 q 874 993 872 975 q 886 1030 876 1011 q 917 1064 896 1049 q 976 1079 938 1079 q 1023 1074 1000 1079 q 1064 1057 1046 1069 q 1092 1025 1082 1044 q 1100 978 1101 1006 q 1095 883 1097 931 q 1096 786 1093 835 q 1192 785 1153 786 q 1236 786 1232 785 m 479 313 q 511 333 490 331 q 556 324 532 335 q 601 294 579 314 q 636 247 624 274 q 646 187 651 215 q 625 132 640 158 q 572 70 604 97 q 501 25 540 43 q 419 1 463 7 q 333 1 376 -6 q 238 40 281 11 q 165 109 196 68 q 114 199 133 150 q 86 300 94 247 q 80 410 79 354 q 82 526 81 465 q 53 564 64 536 q 39 624 42 592 q 40 688 36 657 q 57 735 44 719 q 75 749 64 746 q 83 750 81 750 l 88 750 q 94 750 90 750 q 101 751 97 750 q 115 901 110 843 q 119 965 119 958 q 133 1000 119 986 q 167 1021 147 1014 q 208 1029 186 1028 q 246 1028 229 1031 q 328 998 289 1022 q 376 926 368 974 q 378 860 379 901 q 372 765 376 818 q 581 786 476 771 q 611 778 600 793 q 626 738 622 764 q 629 678 631 711 q 621 613 628 644 q 603 558 614 582 q 581 526 593 533 q 526 505 554 511 q 469 497 499 499 q 408 498 439 496 q 347 503 378 500 q 342 451 344 478 q 338 395 339 424 q 342 338 338 367 q 357 283 346 310 q 410 251 375 242 q 479 313 446 260 z "},"B":{"ha":774,"x_min":42,"x_max":738,"o":"m 549 565 q 618 533 588 554 q 671 483 649 513 q 707 419 693 454 q 725 347 721 385 q 698 183 738 251 q 590 74 658 115 q 433 13 521 32 q 265 -4 346 -6 l 260 -4 q 201 -13 233 -12 q 140 -7 169 -14 q 87 17 110 0 q 57 61 64 33 q 47 157 50 89 q 42 313 43 225 q 42 499 42 401 q 44 685 42 597 q 48 842 46 774 q 51 938 50 910 q 51 958 51 943 q 58 992 51 974 q 85 1026 65 1010 q 142 1047 104 1042 q 205 1047 181 1053 q 244 1029 229 1042 q 372 1024 308 1038 q 490 978 436 1010 q 581 901 543 947 q 631 801 618 856 q 625 685 643 746 q 549 565 607 625 m 296 638 q 369 660 339 642 q 414 705 399 679 q 429 758 429 731 q 414 809 429 786 q 367 846 399 832 q 288 856 335 860 q 289 813 288 843 q 292 748 290 782 q 294 683 293 714 q 296 638 296 651 m 315 204 q 431 219 386 203 q 496 260 475 235 q 513 314 517 285 q 485 367 510 343 q 416 403 461 390 q 307 411 371 417 q 310 365 308 393 q 312 306 311 336 q 314 249 313 276 q 315 204 315 221 z "},"C":{"ha":819,"x_min":26,"x_max":786,"o":"m 569 385 q 604 424 581 413 q 655 433 628 436 q 709 415 682 431 q 754 372 736 399 q 778 310 772 346 q 771 232 785 274 q 647 66 731 131 q 456 -3 563 1 q 326 19 385 -4 q 218 84 267 43 q 133 179 169 125 q 74 295 97 233 q 38 421 50 357 q 28 544 26 485 q 58 718 29 633 q 138 870 86 803 q 261 983 189 938 q 422 1036 333 1028 q 572 1021 503 1044 q 689 951 640 997 q 762 842 738 906 q 781 708 786 779 q 760 651 778 674 q 720 615 743 628 q 670 601 697 603 q 620 605 643 599 q 582 626 597 611 q 567 665 567 642 q 533 765 568 735 q 453 793 499 796 q 358 747 396 789 q 301 647 321 706 q 281 519 282 588 q 299 394 281 451 q 352 300 317 336 q 442 267 388 264 q 514 298 479 269 q 569 385 549 326 z "},"D":{"ha":772,"x_min":31,"x_max":747,"o":"m 207 1044 q 343 1048 278 1056 q 468 1015 408 1040 q 610 915 553 979 q 700 772 668 851 q 740 601 732 692 q 731 424 747 511 q 676 257 715 336 q 578 119 638 178 q 439 28 518 60 q 261 3 360 -4 q 201 -10 235 -7 q 137 -6 168 -12 q 82 17 106 0 q 50 63 58 33 q 38 143 42 92 q 32 259 33 194 q 31 397 31 324 q 32 544 31 471 q 35 685 33 617 q 38 807 36 753 q 40 896 39 861 q 42 939 42 931 q 42 960 42 944 q 49 994 42 976 q 76 1028 57 1013 q 133 1047 94 1043 q 174 1049 157 1050 q 207 1044 192 1047 m 285 217 q 415 278 363 229 q 494 394 468 328 q 519 536 519 461 q 493 674 519 611 q 415 777 467 736 q 285 818 363 818 q 282 775 282 818 q 283 666 282 732 q 285 524 283 600 q 287 380 286 447 q 287 267 288 313 q 285 217 286 221 z "},"E":{"ha":633,"x_min":24,"x_max":607,"o":"m 574 239 q 588 227 582 242 q 596 189 593 213 q 598 136 599 165 q 593 81 597 107 q 581 34 589 54 q 561 8 572 14 q 472 -3 533 -3 q 344 -1 411 -3 q 302 -2 329 -1 q 242 -2 275 -3 q 176 2 210 -1 q 113 15 142 6 q 63 39 83 24 q 36 79 42 54 q 27 158 29 107 q 25 272 25 210 q 24 405 24 335 q 26 544 25 475 q 28 681 28 615 q 28 799 28 747 q 28 885 28 851 q 29 926 28 919 q 41 988 29 965 q 74 1024 53 1011 q 124 1040 94 1036 q 190 1046 154 1044 q 234 1045 201 1046 q 310 1043 267 1044 q 399 1040 353 1042 q 486 1038 446 1039 q 553 1035 526 1036 q 585 1036 581 1035 q 599 1023 593 1038 q 606 985 604 1008 q 606 934 607 963 q 599 881 604 906 q 585 836 594 856 q 564 813 576 817 q 498 801 536 801 q 419 806 460 801 q 340 817 379 810 q 269 828 300 824 l 269 825 q 276 738 272 785 q 283 640 279 692 q 349 645 307 643 q 432 649 392 647 q 502 653 472 651 q 532 654 532 654 q 549 630 543 657 q 553 567 554 603 q 546 499 553 532 q 524 458 539 467 q 472 444 501 447 q 412 441 443 440 q 350 445 381 442 q 293 450 319 449 q 295 331 294 388 q 296 226 296 275 q 373 232 325 229 q 466 236 421 235 q 543 238 511 238 q 574 239 575 239 z "},"G":{"ha":858,"x_min":25,"x_max":826,"o":"m 799 525 q 816 502 808 529 q 825 438 824 475 q 821 368 826 401 q 799 326 815 335 q 788 322 793 324 q 776 319 783 321 q 742 177 774 239 q 658 74 710 115 q 542 13 607 32 q 410 -1 476 -6 q 279 33 343 3 q 167 119 215 63 q 68 293 103 193 q 29 500 33 393 q 49 699 25 601 q 124 872 72 796 q 257 994 176 949 q 449 1039 338 1040 q 573 1015 511 1038 q 683 951 635 992 q 760 853 731 911 q 790 725 790 796 q 765 669 790 696 q 707 628 740 642 q 642 619 674 615 q 597 653 610 622 q 586 677 590 667 q 578 697 582 688 q 567 715 574 706 q 553 736 561 724 q 484 786 521 778 q 412 778 447 794 q 347 728 376 763 q 303 647 318 693 q 284 562 289 607 q 282 472 279 517 q 294 392 285 429 q 319 325 304 354 q 379 257 342 281 q 456 232 417 233 q 532 254 496 231 q 588 329 568 278 q 544 334 569 332 q 497 338 519 336 q 456 340 474 339 q 436 342 439 340 q 404 378 413 350 q 399 438 396 407 q 415 494 403 469 q 442 518 426 518 q 469 515 443 515 q 535 516 496 515 q 621 518 575 517 q 706 521 667 519 q 771 524 744 522 q 799 525 797 525 z "},"I":{"ha":347,"x_min":39,"x_max":321,"o":"m 311 943 q 301 780 304 867 q 297 605 297 693 q 297 433 296 517 q 301 278 299 349 q 308 157 304 208 q 317 85 313 106 q 306 49 321 65 q 265 20 290 32 q 207 3 239 8 q 145 3 175 -1 q 92 24 115 8 q 60 69 68 39 q 44 192 49 117 q 40 354 40 267 q 42 534 39 442 q 51 710 46 626 q 64 858 57 793 q 78 958 71 924 q 85 986 79 965 q 121 1025 90 1007 q 180 1040 143 1036 q 250 1038 217 1044 q 306 1003 297 1026 q 311 943 314 981 z "},"F":{"ha":696,"x_min":26,"x_max":669,"o":"m 639 1046 q 657 1032 650 1049 q 667 989 664 1015 q 668 930 669 963 q 661 868 667 897 q 645 817 656 839 q 619 788 635 794 q 574 778 603 781 q 511 775 546 775 q 437 778 476 775 q 358 783 397 781 q 319 785 338 785 q 282 789 300 786 q 285 683 283 740 q 290 564 288 625 q 371 569 318 565 q 474 577 424 574 q 563 583 525 581 q 600 585 601 585 q 620 562 613 589 q 628 499 628 535 q 622 431 629 464 q 599 389 615 397 q 540 376 575 379 q 463 371 504 372 q 378 371 422 369 q 297 372 335 372 q 304 217 300 299 q 308 58 308 135 q 302 35 311 46 q 276 15 293 24 q 238 2 260 7 q 193 -4 217 -3 q 103 12 146 -6 q 51 68 61 29 q 35 192 40 118 q 28 352 29 267 q 29 526 26 438 q 35 697 32 615 q 44 842 39 778 q 51 944 49 907 q 53 966 51 950 q 64 999 54 982 q 94 1031 74 1017 q 153 1046 114 1044 q 222 1036 197 1046 q 280 1040 242 1039 q 363 1043 318 1042 q 456 1044 408 1044 q 542 1044 503 1044 q 609 1044 582 1044 q 639 1046 636 1044 z "},"J":{"ha":771,"x_min":29,"x_max":739,"o":"m 697 936 q 722 803 711 876 q 735 650 732 729 q 733 489 739 571 q 709 332 728 407 q 655 192 690 257 q 565 79 619 126 q 466 22 521 43 q 355 1 411 1 q 244 24 299 1 q 143 96 189 46 q 79 193 104 138 q 42 310 54 249 q 29 436 29 372 q 40 561 29 500 q 61 631 47 597 q 116 676 79 665 q 189 679 153 686 q 252 653 225 672 q 276 607 279 633 q 265 487 271 550 q 271 353 258 424 q 308 273 285 296 q 358 256 332 250 q 407 292 383 261 q 444 372 431 322 q 463 486 458 429 q 467 601 468 543 q 460 719 465 660 q 449 840 454 779 q 385 831 425 835 q 299 825 344 826 q 208 824 253 824 q 132 829 163 825 q 111 858 117 832 q 108 919 106 883 q 123 986 111 954 q 156 1025 135 1018 q 197 1032 171 1031 q 256 1033 224 1033 q 393 1035 324 1033 q 535 1042 463 1036 q 588 1043 563 1044 q 635 1031 614 1042 q 672 998 656 1021 q 697 936 688 975 z "},"K":{"ha":794,"x_min":35,"x_max":768,"o":"m 454 542 q 540 455 496 501 q 624 356 583 408 q 697 249 664 304 q 754 136 731 193 q 753 76 768 101 q 703 33 738 53 q 633 5 669 14 q 564 -2 596 -4 q 522 19 532 0 q 426 174 481 96 q 306 340 372 253 q 311 239 308 288 q 317 153 314 190 q 323 92 321 115 q 325 65 325 68 q 315 35 329 50 q 274 11 300 21 q 217 -3 249 1 q 154 -2 185 -7 q 100 17 124 3 q 68 58 76 31 q 47 163 54 90 q 37 327 39 235 q 38 522 35 419 q 45 717 40 625 q 58 879 50 808 q 74 981 65 950 q 101 1024 81 1003 q 171 1044 121 1044 q 215 1040 192 1044 q 256 1025 238 1036 q 287 996 275 1014 q 297 951 299 978 q 297 917 297 935 q 296 874 296 899 q 296 815 296 849 q 296 731 296 781 q 403 854 356 788 q 489 997 450 921 q 501 1027 497 1015 q 513 1044 506 1039 q 535 1049 521 1050 q 576 1040 549 1047 q 638 1022 607 1032 q 692 994 668 1011 q 727 950 715 976 q 731 886 739 924 q 688 788 718 836 q 619 695 657 739 q 537 612 581 651 q 454 542 493 572 z "},"L":{"ha":696,"x_min":42,"x_max":669,"o":"m 642 283 q 660 261 653 285 q 668 203 667 238 q 667 129 669 168 q 656 63 664 90 q 620 19 646 26 q 557 8 594 11 q 461 2 515 4 q 356 -1 407 0 q 263 -3 304 -3 q 207 -3 222 -3 q 142 3 169 -3 q 94 23 114 8 q 63 65 74 38 q 47 135 51 92 q 42 274 42 192 q 44 445 42 356 q 50 625 46 535 q 58 790 54 715 q 66 913 63 864 q 71 972 69 963 q 73 988 71 978 q 84 1010 75 999 q 114 1031 93 1022 q 172 1043 135 1040 q 252 1031 225 1046 q 290 999 279 1017 q 303 951 304 978 q 306 701 304 826 q 306 590 306 649 q 308 474 307 532 q 310 360 308 417 q 313 256 311 304 q 397 263 342 258 q 506 272 451 268 q 642 283 569 278 z "},"M":{"ha":1075,"x_min":29,"x_max":1050,"o":"m 1044 951 q 1019 528 1014 742 q 1044 99 1024 314 q 1044 60 1047 76 q 1031 32 1042 44 q 997 10 1019 19 q 936 -4 974 1 q 844 -1 888 -11 q 786 51 800 10 q 776 100 781 67 q 769 177 772 133 q 765 269 767 221 q 763 366 764 318 q 761 456 761 414 q 761 525 761 497 q 740 489 758 517 q 698 429 721 461 q 652 369 675 397 q 617 329 629 340 q 533 301 581 299 q 456 328 486 303 q 377 416 419 358 q 297 533 335 474 q 299 369 299 453 q 299 215 300 285 q 299 101 299 146 q 299 53 299 56 q 284 22 301 35 q 240 3 267 10 q 181 -4 214 -4 q 119 4 149 -4 q 67 29 89 13 q 39 72 44 46 q 31 166 32 99 q 31 319 29 233 q 35 502 32 406 q 42 685 39 599 q 48 839 46 772 q 50 933 50 906 q 51 954 50 939 q 58 988 51 969 q 85 1021 65 1006 q 142 1040 104 1036 q 223 1037 197 1047 q 265 1004 249 1026 q 324 924 289 972 q 397 822 358 875 q 471 717 435 768 q 532 631 507 665 q 576 690 551 656 q 628 760 601 724 q 683 835 656 797 q 733 904 710 872 q 775 960 757 936 q 803 996 793 985 q 865 1033 822 1021 q 949 1041 907 1044 q 1021 1016 992 1038 q 1044 951 1050 994 z "},"N":{"ha":929,"x_min":29,"x_max":893,"o":"m 882 963 q 889 880 886 939 q 892 744 892 821 q 892 579 893 667 q 890 409 892 492 q 887 258 889 326 q 882 149 885 189 q 878 100 881 124 q 865 56 875 76 q 838 22 856 36 q 786 3 819 7 q 720 -1 749 -4 q 671 11 692 1 q 635 37 650 21 q 610 72 621 53 q 549 175 586 114 q 469 301 513 236 q 381 427 426 365 q 297 533 336 489 q 310 328 304 429 q 328 121 317 226 q 332 88 331 100 q 335 74 333 76 q 325 43 339 58 q 285 17 311 28 q 228 0 260 6 q 166 -3 196 -6 q 111 13 136 0 q 76 53 86 26 q 47 179 57 104 q 33 340 38 254 q 31 515 29 425 q 36 686 32 604 q 46 835 40 768 q 57 940 51 901 q 60 962 58 946 q 70 995 61 978 q 99 1026 79 1013 q 158 1039 119 1039 q 217 1034 193 1038 q 258 1024 242 1031 q 284 1008 274 1018 q 303 982 294 999 q 463 728 385 856 q 629 475 540 601 q 625 581 626 524 q 623 693 624 638 q 622 800 622 749 q 622 892 622 851 q 622 956 622 932 q 622 979 622 979 q 637 1010 619 997 q 681 1029 654 1022 q 740 1037 707 1036 q 802 1030 772 1038 q 854 1006 832 1022 q 882 963 876 989 z "},"O":{"ha":801,"x_min":24,"x_max":778,"o":"m 406 1032 q 564 990 496 1033 q 679 876 632 947 q 751 713 726 804 q 776 524 775 621 q 756 335 778 428 q 690 168 735 242 q 576 49 646 94 q 414 0 507 3 q 242 40 315 -3 q 119 153 168 82 q 47 317 71 225 q 24 507 24 410 q 49 698 25 604 q 122 865 74 792 q 240 985 169 939 q 406 1032 311 1031 m 551 539 q 530 685 551 628 q 476 770 508 743 q 405 795 443 797 q 333 761 367 793 q 276 669 300 729 q 250 522 253 610 q 267 352 246 419 q 322 253 289 285 q 396 223 356 221 q 471 261 436 225 q 528 367 506 297 q 551 539 551 436 z "},"P":{"ha":772,"x_min":38,"x_max":758,"o":"m 244 1038 q 439 1024 344 1049 q 606 942 533 999 q 718 801 678 886 q 749 603 758 715 q 704 447 742 518 q 607 323 667 376 q 470 235 547 269 q 308 189 393 200 q 309 106 308 138 q 310 69 310 74 q 297 40 313 53 q 254 19 281 26 q 195 10 228 11 q 133 17 163 10 q 81 40 104 24 q 53 82 58 56 q 42 174 44 108 q 38 326 39 240 q 39 508 38 413 q 43 690 40 604 q 49 841 46 775 q 53 933 51 907 q 53 954 53 939 q 62 987 54 969 q 88 1019 69 1004 q 146 1038 107 1033 q 186 1040 169 1042 q 218 1035 203 1038 q 238 1038 232 1038 l 244 1038 m 304 446 q 428 474 376 446 q 509 544 481 503 q 541 635 538 586 q 519 724 544 683 q 437 789 493 764 q 290 810 381 814 q 297 637 293 724 q 303 458 300 550 l 303 456 q 303 453 303 454 q 304 451 304 453 l 304 446 z "},"Q":{"ha":800,"x_min":24,"x_max":789,"o":"m 778 139 q 776 106 789 132 q 739 53 763 81 q 687 7 715 26 q 639 -6 658 -12 q 602 18 624 0 q 554 60 581 36 q 375 -7 475 -4 q 216 32 283 -10 q 106 144 149 74 q 43 307 63 215 q 27 496 24 399 q 57 687 31 593 q 131 856 83 781 q 249 978 179 931 q 410 1031 319 1026 q 570 997 503 1036 q 681 891 638 958 q 744 735 724 824 q 765 555 765 647 q 743 374 764 463 q 685 219 722 286 q 749 164 722 188 q 778 139 775 140 m 419 779 q 342 742 376 779 q 285 648 307 704 q 256 525 264 592 q 258 399 249 458 q 295 299 267 340 q 375 250 324 257 q 353 279 363 268 q 342 293 343 290 q 335 302 340 296 q 328 319 331 308 q 332 344 326 329 q 357 382 338 360 q 401 424 382 413 q 432 436 419 435 q 456 428 447 438 l 479 404 q 498 385 489 394 q 514 372 507 376 q 533 429 525 392 q 541 512 540 467 q 536 604 542 557 q 516 690 531 651 q 478 754 501 729 q 419 779 454 779 z "},"R":{"ha":751,"x_min":28,"x_max":722,"o":"m 211 1035 q 394 1019 300 1039 q 553 954 486 1001 q 659 843 619 907 q 709 705 699 779 q 699 557 719 631 q 626 417 679 483 q 486 304 574 351 q 525 265 501 283 q 577 229 549 246 q 637 199 606 213 q 697 179 668 186 q 720 149 718 178 q 712 88 722 121 q 680 26 701 54 q 631 -4 658 -3 q 547 16 592 -4 q 457 65 501 36 q 372 127 413 94 q 303 185 332 160 q 303 136 303 160 q 304 94 304 113 q 304 63 304 75 q 304 49 304 50 q 291 19 307 32 q 249 -2 275 6 q 190 -10 222 -10 q 128 -4 158 -11 q 76 19 99 3 q 46 61 53 35 q 33 157 38 88 q 28 316 29 226 q 28 506 28 406 q 30 697 28 607 q 33 856 32 788 q 35 951 35 925 q 47 999 33 981 q 85 1028 61 1018 q 141 1040 108 1039 q 211 1035 174 1042 m 281 824 q 288 644 288 739 q 292 464 288 550 q 394 496 350 468 q 464 563 439 524 q 494 647 489 603 q 478 731 499 692 q 408 795 457 769 q 281 824 360 821 z "},"T":{"ha":767,"x_min":18,"x_max":742,"o":"m 706 1033 q 725 1019 717 1036 q 738 976 733 1003 q 741 917 742 950 q 734 856 740 885 q 715 803 728 826 q 685 775 703 781 q 606 765 657 765 q 492 768 554 764 q 490 674 490 736 q 490 538 489 613 q 494 381 492 463 q 499 232 496 300 q 504 115 501 164 q 511 57 507 67 q 500 28 515 42 q 459 7 485 15 q 401 -5 433 -1 q 338 -3 368 -8 q 285 15 308 1 q 253 51 261 28 q 236 138 242 82 q 228 260 231 193 q 228 403 226 328 q 233 551 229 479 q 243 684 238 622 q 254 789 249 746 q 143 803 189 797 q 89 811 97 808 q 74 813 85 813 q 52 823 64 814 q 31 851 40 832 q 21 910 21 871 q 28 990 18 963 q 51 1028 39 1017 q 86 1040 67 1042 q 135 1040 89 1040 q 250 1040 182 1040 q 397 1038 318 1039 q 544 1035 476 1036 q 658 1034 613 1035 q 706 1033 704 1033 z "},"U":{"ha":935,"x_min":29,"x_max":906,"o":"m 322 940 q 284 747 303 840 q 269 560 265 653 q 304 390 275 456 q 374 293 333 324 q 460 266 414 263 q 547 303 507 269 q 615 399 588 338 q 646 549 643 461 q 641 631 647 582 q 624 733 635 681 q 602 833 614 785 q 581 911 590 881 q 576 953 572 935 q 592 988 579 972 q 623 1015 604 1003 q 664 1035 642 1026 q 769 1034 729 1054 q 832 961 810 1014 q 888 753 869 863 q 898 538 906 644 q 855 331 890 431 q 750 149 819 231 q 624 45 696 85 q 464 3 551 6 q 296 42 371 1 q 167 148 221 82 q 80 296 113 214 q 38 458 47 378 q 31 593 29 525 q 40 728 32 661 q 63 858 49 794 q 93 976 76 921 q 123 1022 101 1001 q 196 1040 144 1043 q 247 1032 222 1038 q 291 1015 272 1026 q 319 985 310 1003 q 322 940 328 967 z "},"V":{"ha":818,"x_min":17,"x_max":804,"o":"m 547 971 q 585 1033 563 1018 q 665 1043 608 1049 q 716 1033 690 1040 q 762 1012 742 1025 q 793 981 782 999 q 801 940 804 963 q 779 856 794 913 q 742 725 764 799 q 694 568 719 651 q 642 403 668 485 q 592 250 617 322 q 550 128 568 178 q 526 74 539 97 q 494 34 513 50 q 449 9 475 18 q 385 -3 422 0 q 316 6 346 -6 q 264 38 286 17 q 226 90 242 60 q 199 154 210 119 q 148 328 174 235 q 99 519 122 421 q 57 715 76 617 q 24 906 38 814 q 19 926 22 911 q 21 960 17 942 q 40 998 25 979 q 93 1028 56 1017 q 174 1036 144 1043 q 218 1014 203 1029 q 242 971 235 997 q 275 838 258 908 q 310 694 292 767 q 347 550 328 621 q 389 415 367 479 q 427 548 408 478 q 465 690 446 618 q 503 834 483 763 q 547 971 524 906 z "},"X":{"ha":794,"x_min":13,"x_max":776,"o":"m 768 139 q 774 111 776 128 q 759 77 771 94 q 729 43 747 60 q 690 17 711 26 q 603 -3 649 -7 q 531 35 558 0 q 452 152 488 89 q 386 281 417 215 q 331 200 357 239 q 284 130 304 161 q 251 78 264 99 q 233 53 238 57 q 221 34 231 49 q 194 8 211 19 q 153 -8 178 -4 q 94 4 129 -12 q 55 31 74 14 q 25 67 36 47 q 13 109 14 86 q 28 156 13 132 q 72 235 44 189 q 129 334 99 282 q 191 438 160 386 q 249 533 222 490 q 185 647 215 593 q 132 742 156 700 q 93 812 108 785 q 74 844 78 839 q 62 865 71 850 q 49 901 53 881 q 53 944 46 921 q 92 992 61 968 q 185 1035 144 1036 q 257 990 225 1035 q 286 948 269 974 q 322 893 303 922 q 360 833 340 864 q 397 775 379 803 q 499 940 458 874 q 543 1013 540 1006 q 572 1033 550 1029 q 620 1031 593 1038 q 676 1008 647 1024 q 726 971 704 993 q 757 922 747 949 q 757 867 767 896 q 729 804 749 842 q 683 722 710 767 q 622 626 656 676 q 554 524 589 575 q 626 399 592 460 q 689 288 661 338 q 744 184 724 225 q 768 139 765 143 z "},"Y":{"ha":879,"x_min":24,"x_max":865,"o":"m 696 1050 q 784 1043 749 1057 q 838 1002 819 1029 q 861 938 857 975 q 857 863 865 901 q 818 739 846 811 q 751 584 790 667 q 661 415 711 501 q 555 249 611 328 q 436 106 499 171 q 311 4 374 42 q 238 -6 274 -18 q 167 32 203 6 q 129 65 146 47 q 106 103 113 82 q 106 152 96 133 q 135 193 115 171 q 249 318 189 254 q 358 468 308 382 l 358 469 q 328 518 347 489 q 284 581 308 547 q 233 649 260 614 q 179 715 206 683 q 131 764 156 743 q 86 803 107 785 q 50 836 65 821 q 31 868 35 851 q 38 928 24 894 q 81 990 53 963 q 147 1032 108 1018 q 226 1033 185 1046 q 313 979 268 1021 q 395 885 357 938 q 463 781 433 833 q 504 696 492 729 q 537 755 519 722 q 571 824 554 788 q 603 897 588 860 q 629 969 618 933 q 638 1001 635 988 q 647 1024 642 1015 q 664 1040 653 1033 q 696 1050 675 1046 z "},"Z":{"ha":783,"x_min":19,"x_max":769,"o":"m 724 275 q 740 265 733 275 q 749 239 746 256 q 751 201 751 222 q 749 157 751 179 q 724 67 742 108 q 678 18 706 26 q 626 10 658 11 q 553 11 593 10 q 467 15 513 13 q 376 18 422 17 q 289 17 332 19 q 212 12 246 15 q 155 5 178 8 q 126 1 132 1 q 113 3 122 1 q 90 14 103 4 q 63 44 76 24 q 36 101 49 64 q 26 190 19 156 q 49 256 32 225 q 221 522 128 394 q 419 776 314 649 q 310 773 364 775 q 212 769 256 771 q 140 765 168 767 q 110 763 113 764 q 90 776 99 760 q 75 818 81 792 q 69 877 69 844 q 73 940 68 910 q 89 992 78 969 q 118 1024 100 1015 q 197 1038 144 1035 q 310 1040 249 1042 q 438 1035 372 1039 q 560 1026 504 1031 q 655 1017 617 1021 q 700 1011 693 1013 q 736 985 719 1008 q 761 929 753 961 q 767 863 769 897 q 747 806 764 829 q 742 798 744 801 q 739 792 740 794 q 736 788 738 789 q 713 757 736 788 q 656 678 690 726 q 578 572 621 631 q 496 457 536 514 q 422 352 456 400 q 374 279 389 304 q 381 280 378 279 q 388 281 385 281 q 474 282 429 282 q 564 281 519 282 q 649 278 608 281 q 724 275 690 276 z "},"&":{"ha":888,"x_min":24,"x_max":864,"o":"m 821 239 q 844 227 836 236 q 856 203 851 218 q 859 130 864 171 q 828 63 854 89 q 790 41 813 49 q 739 36 768 33 q 678 50 713 42 q 604 75 644 58 q 488 16 551 39 q 358 -11 425 -7 q 228 3 292 -15 q 111 69 164 21 q 41 181 58 118 q 33 310 24 244 q 73 440 42 376 q 150 551 104 503 q 138 722 126 635 q 193 878 150 808 q 308 992 236 949 q 481 1031 381 1035 q 562 1013 524 1028 q 629 974 600 999 q 676 915 658 949 q 699 839 694 881 q 680 723 704 775 q 617 625 656 671 q 531 539 578 579 q 447 457 485 499 q 505 400 475 428 q 572 347 535 372 q 623 413 600 379 q 672 481 646 447 q 723 511 686 508 q 794 496 760 514 q 826 472 813 486 q 848 439 840 457 q 855 399 856 421 q 843 353 854 378 q 820 309 835 333 q 785 256 806 285 l 781 247 q 805 242 792 244 q 821 239 818 239 m 456 774 q 486 821 485 803 q 474 844 488 839 q 438 844 461 850 q 396 818 415 838 q 356 751 367 790 q 343 665 346 711 q 399 720 369 694 q 456 774 428 746 m 249 356 q 238 281 235 317 q 260 221 240 244 q 316 191 279 197 q 406 206 353 185 q 322 270 364 228 q 249 356 281 313 z "},"!":{"ha":335,"x_min":24,"x_max":310,"o":"m 269 85 q 237 14 269 44 q 158 -17 204 -17 q 80 14 113 -17 q 47 85 47 44 q 80 158 47 129 q 158 186 113 186 q 237 158 204 186 q 269 85 269 129 m 278 331 q 264 294 278 310 q 225 270 253 281 q 144 261 197 260 q 75 282 96 265 q 47 328 54 299 q 34 424 39 368 q 26 542 29 479 q 24 669 24 604 q 26 794 24 735 q 33 901 29 853 q 44 979 38 950 q 76 1011 53 999 q 130 1028 100 1024 q 192 1033 160 1033 q 252 1026 225 1032 q 294 1012 279 1021 q 307 990 310 1003 q 304 956 306 986 q 301 879 303 926 q 296 773 299 832 q 290 653 293 714 q 278 331 285 510 z "},"?":{"ha":690,"x_min":35,"x_max":682,"o":"m 379 82 q 349 13 379 42 q 275 -17 318 -17 q 199 13 231 -17 q 168 82 168 42 q 199 153 168 126 q 275 181 231 181 q 349 153 318 181 q 379 82 379 126 m 343 619 q 390 678 371 650 q 418 738 408 706 q 416 792 425 772 q 389 815 407 811 q 348 808 371 819 q 306 767 325 796 q 271 679 281 731 q 260 636 265 654 q 247 606 256 618 q 224 586 239 593 q 185 576 210 579 q 119 584 149 572 q 71 619 90 596 q 43 673 51 642 q 39 740 35 704 q 81 861 47 807 q 165 954 115 915 q 276 1015 215 993 q 399 1038 336 1038 q 495 1023 453 1038 q 570 983 538 1008 q 624 925 603 958 q 657 854 646 892 q 660 703 682 771 q 592 572 639 635 q 527 501 561 532 q 463 437 493 469 q 412 367 433 404 q 385 279 390 329 q 367 251 382 260 q 332 240 353 243 q 243 251 281 235 q 192 306 206 267 q 190 392 178 347 q 228 478 203 436 q 286 556 254 519 q 343 619 318 592 z "},"(":{"ha":479,"x_min":29,"x_max":456,"o":"m 438 903 q 330 707 374 811 q 277 499 286 603 q 301 299 268 396 q 425 122 335 201 q 445 76 447 103 q 419 22 443 49 q 361 -21 392 -7 q 300 -37 331 -35 q 242 -29 269 -39 q 193 0 214 -19 q 92 143 129 60 q 42 322 56 226 q 38 518 29 417 q 77 716 47 619 q 156 899 107 813 q 271 1049 206 985 q 316 1066 288 1064 q 378 1049 344 1068 q 415 1024 396 1038 q 444 994 433 1011 q 456 954 456 976 q 438 903 456 932 z "},"/":{"ha":699,"x_min":21,"x_max":675,"o":"m 661 922 q 458 440 553 681 q 264 -43 363 199 q 240 -71 260 -62 q 191 -78 219 -79 q 131 -67 163 -76 q 75 -38 100 -57 q 35 6 50 -19 q 26 64 21 32 q 55 172 28 97 q 123 342 82 247 q 213 542 164 438 q 308 740 263 647 q 390 904 354 833 q 442 1001 426 975 q 454 1024 446 1007 q 479 1056 463 1040 q 521 1077 496 1071 q 582 1069 546 1083 q 651 1026 632 1051 q 672 978 669 1001 q 661 922 675 951 z "},"$":{"ha":574,"x_min":35,"x_max":540,"o":"m 361 721 q 304 738 328 742 q 273 718 281 735 q 276 676 265 701 q 324 625 288 650 q 399 574 361 601 q 467 515 436 547 q 517 440 497 482 q 539 346 536 399 q 528 250 540 297 q 490 163 515 203 q 426 98 464 124 q 343 68 389 72 q 348 15 346 36 q 350 -8 350 -7 q 335 -19 353 -14 q 292 -24 317 -24 q 246 -22 268 -25 q 218 -10 224 -19 q 210 19 214 0 q 208 61 207 38 q 136 88 168 67 q 83 140 104 108 q 49 210 61 171 q 36 290 38 249 q 57 344 35 322 q 106 376 79 365 q 158 383 133 386 q 189 361 183 379 q 199 315 193 339 q 215 272 204 292 q 241 241 225 253 q 279 232 257 229 q 313 246 299 233 q 332 276 326 258 q 333 315 338 294 q 308 353 328 336 q 244 401 279 379 q 177 448 210 424 q 116 501 144 472 q 71 569 88 531 q 49 656 51 611 q 65 743 47 700 q 122 824 83 786 q 226 888 161 861 l 226 1029 q 247 1033 226 1032 q 294 1032 268 1035 q 341 1019 319 1029 q 363 990 363 1010 q 360 943 364 971 q 356 896 357 915 q 480 844 443 876 q 524 777 517 811 q 519 714 532 743 q 494 674 507 685 q 447 647 471 650 q 419 651 424 644 q 361 721 394 700 z "},".":{"ha":267,"x_min":38,"x_max":231,"o":"m 231 113 q 202 44 231 72 q 133 15 174 15 q 65 44 93 15 q 38 113 38 72 q 65 179 38 151 q 133 207 93 207 q 202 179 174 207 q 231 113 231 151 z "},",":{"ha":288,"x_min":14,"x_max":251,"o":"m 74 154 q 93 194 82 183 q 125 204 104 206 q 156 199 136 203 q 196 190 176 196 q 231 175 215 183 q 249 154 246 167 q 235 107 251 142 q 197 35 219 72 q 153 -33 175 -3 q 121 -65 131 -62 q 91 -69 110 -68 q 55 -67 72 -69 q 26 -59 38 -65 q 17 -42 14 -53 q 28 1 19 -31 q 49 68 38 33 q 74 154 60 107 z "},"-":{"ha":714,"x_min":46,"x_max":661,"o":"m 99 496 q 354 510 240 504 q 449 515 403 513 q 533 520 496 518 q 593 524 569 522 q 619 526 617 526 q 645 504 635 531 q 658 442 656 478 q 653 374 661 407 q 622 331 644 340 q 553 318 599 322 q 453 313 508 314 q 341 313 399 311 q 234 316 283 314 q 151 319 185 318 q 111 322 117 321 q 99 323 108 322 q 80 330 90 324 q 60 350 69 336 q 49 393 51 364 q 53 453 46 433 q 71 483 60 474 q 99 496 83 494 z "},"+":{"ha":889,"x_min":42,"x_max":847,"o":"m 794 550 q 828 526 814 554 q 844 463 842 499 q 836 394 847 428 q 794 353 825 361 q 694 339 761 342 q 543 336 626 336 q 549 256 546 293 q 553 190 551 218 q 558 145 556 163 q 560 126 560 128 q 539 95 565 110 q 477 76 513 81 q 408 81 442 72 q 364 117 374 89 q 348 206 353 146 q 343 338 343 265 q 197 342 258 340 q 125 346 136 344 q 109 347 121 346 q 84 353 97 347 q 59 375 71 360 q 44 419 47 390 q 51 479 42 460 q 75 508 61 499 q 111 519 90 518 q 182 522 144 521 q 258 524 214 524 q 350 528 301 525 q 365 671 357 611 q 376 740 374 731 q 378 754 376 743 q 387 777 379 765 q 410 798 394 789 q 454 806 425 807 q 488 803 469 804 q 520 795 506 801 q 544 775 535 789 q 550 736 553 761 q 543 642 543 690 q 542 536 543 594 q 636 540 592 538 q 715 545 681 543 q 770 549 749 547 q 794 550 792 550 z "},"=":{"ha":710,"x_min":46,"x_max":663,"o":"m 99 347 q 356 363 242 356 q 451 369 404 365 q 535 374 497 372 q 596 378 572 376 q 622 382 619 381 q 647 360 636 386 q 660 298 657 333 q 654 229 663 263 q 624 186 646 196 q 555 173 600 178 q 455 167 510 168 q 342 166 400 165 q 234 169 283 167 q 151 173 185 171 q 111 176 117 175 q 99 176 108 176 q 80 183 90 176 q 60 203 69 189 q 49 247 51 218 q 53 308 46 288 q 71 338 60 329 q 99 347 83 347 m 99 650 q 356 664 242 657 q 451 669 404 667 q 535 675 497 672 q 596 680 572 678 q 622 683 619 682 q 647 660 636 688 q 660 597 657 633 q 654 528 663 561 q 624 486 646 494 q 555 473 600 478 q 455 467 510 468 q 342 467 400 465 q 234 470 283 468 q 151 474 185 472 q 111 478 117 476 q 99 478 108 478 q 80 485 90 479 q 60 505 69 490 q 49 549 51 519 q 53 609 46 589 q 71 639 60 629 q 99 650 83 650 z "},"":{"ha":758,"x_min":40,"x_max":708,"o":"m 704 499 q 704 315 704 406 q 704 153 704 225 q 705 35 704 81 q 706 -15 706 -11 q 692 -48 708 -33 q 650 -71 676 -62 q 591 -81 624 -79 q 528 -76 558 -83 q 474 -50 497 -68 q 444 -1 451 -32 q 433 130 435 43 q 433 322 431 217 q 442 538 436 426 q 455 744 449 650 q 466 902 461 838 q 472 979 471 967 q 475 1003 474 985 q 485 1040 476 1021 q 515 1075 494 1060 q 574 1093 535 1090 q 653 1081 626 1096 q 692 1047 681 1067 q 704 993 706 1024 l 704 499 m 308 929 q 303 808 304 882 q 303 647 301 733 q 308 469 304 560 q 316 299 311 379 q 326 158 321 219 q 336 69 331 97 q 326 38 340 53 q 285 13 311 24 q 228 -1 260 3 q 166 -2 196 -6 q 112 15 136 1 q 78 56 88 29 q 54 181 63 107 q 43 340 46 256 q 42 512 40 424 q 50 679 44 600 q 63 824 56 758 q 79 929 71 890 q 83 951 81 935 q 94 983 85 967 q 124 1013 103 1000 q 183 1026 144 1026 q 230 1020 206 1025 q 273 1003 254 1015 q 303 974 292 992 q 308 929 314 956 z "},"":{"ha":1932,"x_min":53,"x_max":1861,"o":"m 1597 860 q 1721 793 1671 839 q 1802 685 1771 747 q 1847 551 1833 624 q 1861 408 1861 479 q 1849 230 1861 324 q 1814 46 1836 136 q 1766 -12 1803 0 q 1682 -15 1729 -25 q 1635 0 1658 -10 q 1596 26 1613 10 q 1570 66 1579 42 q 1565 124 1561 90 q 1574 185 1568 151 q 1586 260 1579 219 q 1591 490 1614 406 q 1519 603 1568 575 q 1410 607 1471 632 q 1304 510 1350 582 q 1260 414 1275 464 q 1240 310 1246 364 q 1235 201 1235 257 q 1239 92 1236 146 q 1243 48 1240 69 q 1244 6 1246 26 q 1233 -31 1243 -14 q 1199 -61 1224 -49 q 1142 -81 1174 -75 q 1079 -85 1110 -87 q 1006 -54 1032 -83 q 967 17 981 -25 q 950 105 954 58 q 944 189 946 151 q 941 315 940 249 q 944 450 942 382 q 952 583 947 518 q 963 703 957 647 q 973 801 968 758 q 981 868 978 844 q 984 887 981 874 q 999 914 988 900 q 1032 937 1010 928 q 1093 943 1054 946 q 1140 935 1117 942 q 1180 917 1163 929 q 1208 885 1197 904 q 1217 838 1218 865 q 1214 815 1215 828 q 1212 790 1213 804 q 1211 756 1211 775 q 1301 820 1253 794 q 1399 859 1349 846 q 1499 872 1449 872 q 1597 860 1550 872 m 822 513 q 831 445 828 485 q 836 361 835 406 q 836 271 838 317 q 831 183 835 225 q 820 108 826 142 q 804 53 814 74 q 753 12 790 24 q 676 4 715 0 q 606 28 636 8 q 575 82 575 49 q 576 103 575 90 q 581 128 578 117 q 586 157 583 142 q 597 281 594 215 q 586 408 600 346 q 571 460 581 433 q 544 508 561 486 q 504 544 528 531 q 447 557 481 558 q 398 545 422 557 q 355 510 374 533 q 325 453 336 488 q 315 376 314 419 q 314 371 314 375 q 317 258 315 313 q 322 162 319 204 q 325 92 324 119 q 328 61 326 65 q 315 37 331 47 q 272 19 299 26 q 214 11 246 13 q 152 15 182 10 q 99 32 122 19 q 68 65 75 44 q 56 144 60 90 q 53 267 53 199 q 58 412 54 336 q 65 556 61 488 q 74 679 69 625 q 83 758 79 733 q 86 776 85 763 q 97 802 88 789 q 126 826 106 815 q 185 836 146 836 q 264 824 238 836 q 301 796 290 811 q 307 783 306 789 q 311 774 308 778 q 413 806 360 793 q 519 815 467 818 q 633 788 582 813 q 722 722 683 763 q 785 628 760 682 q 822 513 811 574 z "},")":{"ha":500,"x_min":32,"x_max":460,"o":"m 51 117 q 159 313 115 208 q 212 520 203 417 q 188 721 221 624 q 64 897 154 818 q 44 944 42 917 q 69 997 46 971 q 127 1040 96 1026 q 189 1056 158 1054 q 247 1049 219 1058 q 296 1019 275 1039 q 397 876 360 960 q 447 698 433 793 q 451 501 460 603 q 412 303 442 400 q 333 121 382 207 q 218 -29 283 35 q 173 -47 201 -44 q 111 -29 144 -49 q 74 -5 93 -18 q 44 26 56 8 q 33 65 33 43 q 51 117 32 88 z "},":":{"ha":271,"x_min":38,"x_max":231,"o":"m 231 140 q 202 72 231 100 q 133 43 174 43 q 65 72 93 43 q 38 140 38 100 q 65 207 38 179 q 133 235 93 235 q 202 207 174 235 q 231 140 231 179 m 231 650 q 202 581 231 610 q 133 553 174 553 q 65 581 93 553 q 38 650 38 610 q 65 717 38 689 q 133 744 93 744 q 202 717 174 744 q 231 650 231 689 z "},"%":{"ha":863,"x_min":33,"x_max":829,"o":"m 722 885 q 524 458 618 671 q 335 31 431 246 q 311 6 331 14 q 264 0 292 -1 q 206 10 236 1 q 152 36 176 19 q 113 75 128 53 q 104 126 99 97 q 132 222 106 156 q 198 372 158 288 q 285 548 238 456 q 378 723 333 640 q 458 868 424 806 q 508 954 493 931 q 521 974 513 958 q 544 1002 529 989 q 584 1021 560 1015 q 644 1014 608 1026 q 712 976 693 999 q 733 933 731 953 q 722 885 736 908 m 197 1024 q 292 1002 254 1025 q 349 943 331 979 q 368 864 368 907 q 349 783 368 821 q 294 717 331 744 q 203 685 257 689 q 108 704 146 681 q 51 765 69 728 q 33 848 33 803 q 52 932 33 893 q 107 997 71 971 q 197 1024 143 1024 m 239 857 q 231 898 243 885 q 202 911 218 911 q 172 897 186 911 q 158 856 158 883 q 170 819 158 831 q 197 809 182 808 q 224 822 211 810 q 239 857 236 835 m 658 364 q 753 342 715 365 q 810 283 792 319 q 829 204 829 247 q 810 123 829 161 q 755 57 792 85 q 664 25 718 29 q 569 44 607 21 q 513 106 531 68 q 494 188 494 143 q 513 272 494 233 q 568 338 532 311 q 658 364 604 364 m 700 197 q 692 238 704 225 q 663 251 679 251 q 633 238 647 251 q 619 196 619 224 q 631 160 619 171 q 658 149 643 149 q 685 163 672 150 q 700 197 697 175 z "},"'":{"ha":238,"x_min":22,"x_max":210,"o":"m 33 982 q 44 1025 36 1013 q 72 1042 51 1038 q 103 1044 83 1043 q 144 1044 124 1046 q 183 1038 165 1043 q 204 1022 200 1033 q 205 980 210 1010 q 190 916 200 950 q 169 850 181 882 q 151 801 158 818 q 136 778 144 789 q 113 761 128 768 q 94 756 106 758 q 69 752 82 753 q 46 754 57 751 q 29 765 35 757 q 25 804 22 774 q 28 857 26 826 q 31 915 29 888 q 33 982 32 949 z "},"\"":{"ha":467,"x_min":22,"x_max":443,"o":"m 33 982 q 44 1025 36 1013 q 72 1042 51 1038 q 103 1044 83 1043 q 144 1044 124 1046 q 183 1038 165 1043 q 204 1022 200 1033 q 205 980 210 1010 q 190 916 200 950 q 169 850 181 882 q 151 801 158 818 q 136 778 144 789 q 113 761 128 768 q 94 756 106 758 q 69 752 82 753 q 46 754 57 751 q 29 765 35 757 q 25 804 22 774 q 28 857 26 826 q 31 915 29 888 q 33 982 32 949 m 267 982 q 277 1025 269 1013 q 306 1042 285 1038 q 337 1044 317 1043 q 378 1044 357 1046 q 416 1038 399 1043 q 438 1022 433 1033 q 438 980 443 1010 q 424 916 433 950 q 403 850 414 882 q 385 801 392 818 q 369 778 378 789 q 346 761 361 768 q 327 756 339 758 q 303 752 315 753 q 279 754 290 751 q 263 765 268 757 q 258 804 256 774 q 261 857 260 826 q 264 915 263 888 q 267 982 265 949 z "},"H":{"ha":825,"x_min":32,"x_max":794,"o":"m 774 792 q 759 512 761 653 q 769 226 757 371 q 779 122 774 167 q 786 74 785 78 q 761 31 794 50 q 681 3 728 11 q 589 6 633 -4 q 529 57 544 17 q 501 184 506 114 q 494 319 496 254 q 403 317 449 317 q 310 321 357 318 q 313 267 311 293 q 318 218 315 242 q 328 117 324 156 q 335 75 332 79 q 308 30 342 51 q 226 1 275 8 q 181 -3 204 -3 q 137 3 157 -3 q 101 22 117 10 q 76 54 85 35 q 57 137 65 85 q 43 256 49 189 q 46 603 32 429 q 100 950 60 778 q 104 972 101 956 q 118 1004 107 988 q 151 1033 129 1021 q 210 1040 172 1044 q 288 1019 263 1036 q 322 982 313 1001 q 328 964 326 972 q 329 949 329 956 q 328 933 329 940 q 324 897 326 917 q 315 801 319 861 q 308 696 311 754 q 303 575 304 638 q 338 578 321 576 q 369 581 354 579 q 440 585 406 583 q 504 590 475 588 q 519 717 510 657 q 535 823 528 776 q 549 899 543 869 q 558 936 556 929 q 563 958 560 942 q 578 991 567 975 q 610 1018 589 1007 q 669 1025 632 1029 q 748 1003 724 1019 q 781 967 772 986 q 786 949 785 957 q 788 933 788 940 q 786 919 788 926 q 782 885 785 904 q 778 844 779 868 q 774 792 776 819 z "},"a":{"ha":856,"x_min":40,"x_max":818,"o":"m 817 667 q 790 422 801 549 q 793 169 779 294 q 800 103 796 128 q 806 75 804 78 q 802 60 810 68 q 779 44 794 51 q 743 31 764 38 q 700 19 722 24 q 608 16 651 11 q 549 50 564 21 q 544 58 546 54 q 540 69 543 63 q 417 24 483 32 q 286 32 350 15 q 167 90 222 49 q 79 194 113 131 q 44 360 40 271 q 86 533 49 449 q 190 686 124 617 q 344 793 257 756 q 438 819 382 808 q 551 828 494 831 q 658 805 608 825 q 732 739 708 785 q 786 719 768 732 q 811 696 804 707 q 817 667 818 682 m 564 604 q 482 593 522 604 q 407 560 442 582 q 347 503 372 538 q 308 422 321 468 q 312 337 296 372 q 360 292 328 301 q 433 306 392 283 q 511 396 474 329 q 545 492 535 440 q 568 603 556 543 q 564 604 565 603 z "},"p":{"ha":782,"x_min":47,"x_max":751,"o":"m 243 807 q 369 815 307 818 q 496 783 432 811 q 653 673 594 743 q 731 522 711 603 q 734 358 751 442 q 665 205 717 274 q 526 90 613 136 q 321 38 439 43 q 325 -123 324 -58 q 328 -193 326 -187 q 315 -225 331 -211 q 272 -248 299 -239 q 213 -258 246 -257 q 151 -253 181 -260 q 99 -231 122 -247 q 69 -186 76 -214 q 58 -89 63 -158 q 51 71 54 -19 q 48 262 49 161 q 47 453 47 363 q 48 613 47 543 q 49 710 49 682 q 49 731 49 715 q 56 766 49 747 q 81 801 63 785 q 138 825 100 818 q 202 826 178 832 q 243 807 226 819 m 310 275 q 395 294 358 275 q 451 343 432 314 q 474 406 471 372 q 458 469 476 440 q 399 518 440 499 q 293 539 358 538 q 302 410 297 475 q 310 275 307 346 z "}}}
